<svg width="32" height="32" viewBox="0 0 32 32" fill="none" xmlns="http://www.w3.org/2000/svg">
<path d="M31.9896 16.0053C31.9889 19.1704 31.0498 22.2643 29.2912 24.8955C27.5326 27.5268 25.0334 29.5772 22.1098 30.7875C19.1861 31.9978 15.9693 32.3135 12.8663 31.6949C9.76317 31.0762 6.91323 29.5508 4.67686 27.3117C2.44049 25.0726 0.918157 22.2204 0.302411 19.1158C-0.313335 16.0111 0.0051626 12.7936 1.21762 9.87001C2.43008 6.94646 4.48204 4.44826 7.11396 2.6914C9.74588 0.934529 12.8396 -0.00208978 16.0037 3.5011e-06C18.1047 -0.000924639 20.1854 0.412484 22.1266 1.21658C24.0679 2.02068 25.8316 3.1997 27.317 4.68621C28.8023 6.17271 29.9802 7.93754 30.7831 9.87977C31.5861 11.822 31.9985 13.9035 31.9966 16.0053H31.9896ZM17.8304 5.5597C17.2309 5.50326 16.6173 5.47856 15.9966 5.47856C15.3759 5.47856 14.7658 5.50326 14.1663 5.5597V14.0933H17.8304V5.5597ZM26.2942 10.5338C24.9588 10.0949 23.5942 9.7507 22.2104 9.5037V16.672C22.2104 21.8296 20.0239 24.5424 15.9931 24.5424C11.9622 24.5424 9.78278 21.8296 9.78278 16.672V9.5037C8.39797 9.75113 7.0322 10.0953 5.6955 10.5338V16.7108C5.67018 18.0799 5.91786 19.4402 6.42408 20.7124C6.93029 21.9845 7.68489 23.143 8.64378 24.1201C9.60267 25.0973 10.7467 25.8734 12.0088 26.4033C13.271 26.9331 14.6261 27.206 15.9949 27.206C17.3637 27.206 18.7187 26.9331 19.9809 26.4033C21.2431 25.8734 22.387 25.0973 23.3459 24.1201C24.3048 23.143 25.0594 21.9845 25.5656 20.7124C26.0718 19.4402 26.3195 18.0799 26.2942 16.7108V10.5338Z" fill="#7000FF"/>
</svg>
