<?xml version="1.0" ?><!DOCTYPE svg  PUBLIC '-//W3C//DTD SVG 1.1//EN'  'http://www.w3.org/Graphics/SVG/1.1/DTD/svg11.dtd'><svg class="icon" height="99.76px" version="1.1" viewBox="0 0 2053 1024" width="200px" xmlns="http://www.w3.org/2000/svg"><path d="M538.971555 1015.780512a83.786129 83.786129 0 0 1-15.318351-1.050863c-10.54905-1.980473-12.125344-7.841056-12.125345-11.195735v-18.268852l-32.900101-6.547686c-3.475932 8.447323-10.791556 17.662585-23.967764 17.662585a28.737066 28.737066 0 0 1-4.850137-0.404178c-18.349688-3.071754-83.179862-12.125344-83.826547-12.408269a8.083563 8.083563 0 0 1-6.911447-8.083563v-29.262498c-4.405542-8.568577-16.167126-26.311997-30.232525-26.311997a17.056318 17.056318 0 0 0-3.758857 0.444596L311.217171 937.167863a8.083563 8.083563 0 0 1-6.224343 2.910083 7.841056 7.841056 0 0 1-4.041782-1.172117l-9.498186-5.698912-8.083563 10.064036a8.083563 8.083563 0 0 1-9.902365 2.182562l-49.956418-24.897374a8.083563 8.083563 0 0 1-4.486378-7.113535v-17.096736l-13.176207-7.558131-17.581749 12.529523a8.083563 8.083563 0 0 1-4.688467 1.495459 7.841056 7.841056 0 0 1-4.486377-1.374206l-47.005918-31.323806c-41.872856-31.040881-91.101754-70.488668-98.700303-89.242534-6.749775-6.830611-30.475032-34.355142-20.208907-72.752066-3.475932-11.27657-14.954591-55.776584 13.742056-73.843347 4.041781-17.37966 24.533613-87.787493 91.91011-108.279325a146.959173 146.959173 0 0 1 38.801102-7.194371 47.369679 47.369679 0 0 1 7.436878 0.525431c115.675785-16.530886 303.335697-46.561322 318.371124-57.191207a4.607631 4.607631 0 0 1 1.010446-0.727521c1.576295-0.889192 37.669403-21.744784 69.963236-22.836065a89.161699 89.161699 0 0 0 9.296098-6.992282 8.083563 8.083563 0 0 1 2.707993-1.818801c4.041781-1.576295 401.712658-161.26708 469.331661-239.879729l27.645785-46.116726a160.943737 160.943737 0 0 1 87.544986-65.476859c21.542695-14.42916 46.359233-32.657594 49.592659-37.507732 1.172117-1.616713 24.250689-32.698012 50.805192-32.698012a34.638067 34.638067 0 0 1 23.482751 9.336515l0.525431 0.485014c4.607631 4.890556 111.351079 119.192135 78.208471 223.955109 19.925983 17.0159 112.967791 91.465514 211.708512 91.465515 4.890556 0 9.861947 0 14.671667-0.56585 112.078599-8.608994 166.925574-58.969591 176.464177-90.697575s33.789293-77.319279 34.840156-79.259335a6.871028 6.871028 0 0 1 1.091281-1.576294c1.212534-1.414624 30.798375-34.233889 65.072682-34.233889a52.785666 52.785666 0 0 1 36.658957 14.995009C1932.779886 177.838383 1975.946111 245.942401 1980.472907 312.389288l7.153953 7.153953a8.083563 8.083563 0 0 1 2.344233 6.224343c0 0.485014-2.829247 51.815638 8.972755 87.181226 11.357406 34.112635 39.407369 169.754821 23.967764 236.565468 7.113535 3.51635 14.671667 11.195735 16.813811 26.190743 1.091281 7.76022 8.32607 101.852892-7.356043 119.960074 5.698912 17.581749 17.905092 64.668503-6.10309 87.059972l13.903728 11.882837a8.083563 8.083563 0 0 1 2.505905 4.041782c6.10309 21.946873 5.698912 67.255243-39.609458 81.401478-48.501377 15.197098-135.318843 15.924619-144.776611 15.924619-8.083563 1.414624-72.388306 12.448687-129.82202 12.448687-34.112635 0-58.322906-3.799275-73.843347-11.680749l-30.757957 11.195735a8.083563 8.083563 0 0 1-2.344233 0.485014c-0.565849 0-54.483214 2.788829-105.450078 2.788829-70.973682 0-88.232089-5.294734-94.173508-9.215262l-37.305642-2.869665c-1.131699 0-3.597185 0.202089-7.275207 0.20209a241.415606 241.415606 0 0 1-139.966891-48.016364c-6.588104-3.071754-58.929173-27.079936-84.877411-27.079936a30.111272 30.111272 0 0 0-3.354678 0l-7.315625 0.767939c-77.359697 8.32607-121.253443 17.420078-130.145362 27.079935-4.041781 6.709357-35.32517 52.017727-112.684867 52.017728a263.564568 263.564568 0 0 1-81.401478-14.348324l-19.036791 2.101726v11.438241a8.083563 8.083563 0 0 1-8.083562 8.083563h-96.638995a8.083563 8.083563 0 0 1-8.083563-8.083563v-13.459132h-13.661221a8.083563 8.083563 0 0 1-7.436878-4.890555c-7.881474-18.349688-20.208907-35.68893-25.180298-35.688931-5.17348 1.010445-9.05359 16.167126-9.094008 29.424169a8.083563 8.083563 0 0 1-8.083563 8.083563 7.638967 7.638967 0 0 1-2.546322-0.404178l-10.791557-3.556768-6.709357 23.078572a8.083563 8.083563 0 0 1-6.749775 5.698912c-1.576295 0.161671-34.153053 4.203453-56.504105 4.203453z" fill="#FD986F"/><path d="M1251.295117 16.167126a26.675758 26.675758 0 0 1 18.147598 7.315624s111.997764 118.222107 74.651704 220.883356c0 0 105.611749 97.002755 221.125862 97.002755 5.092645 0 10.185289 0 15.318352-0.56585 121.253443-9.336515 174.241198-65.355606 183.577713-96.477323s34.233889-77.763875 34.233889-77.763875 28.009545-31.485477 59.050427-31.525895a44.782938 44.782938 0 0 1 31.162135 12.852865c40.417814 37.346061 80.835629 105.77342 84.028636 168.016855l9.336515 9.336515s-3.112172 52.906919 9.336515 90.212561 40.417814 180.465541 21.785202 239.596804c0 0 15.560859 0 18.67303 21.785202s6.10309 115.190771-8.608994 115.190771h-0.727521s27.969128 71.539532-9.336515 90.212562l21.744784 18.67303s15.560859 56.019091-34.193471 71.57995-143.119481 15.520441-143.119481 15.52044-69.15488 12.448687-129.094499 12.448687c-29.9496 0-57.595386-3.112172-73.156244-12.448687l-34.233889 12.448687s-53.674858 2.788829-105.086317 2.78883c-42.802465 0-83.907383-1.940055-90.980501-9.013173l-40.417814-3.112172s-2.627158 0.242507-7.315624 0.242507a234.423324 234.423324 0 0 1-135.803857-46.884665s-59.252516-28.29247-88.919192-28.29247a35.567677 35.567677 0 0 0-4.24387 0.202089c-27.969128 3.112172-127.558622 12.448687-143.119481 31.121717 0 0-28.29247 48.703466-106.137181 48.703467a254.632231 254.632231 0 0 1-80.512286-14.509996l-28.009545 3.112172v18.67303h-96.638995v-21.744784h-21.744784s-17.420078-40.417814-32.617176-40.417814a7.073118 7.073118 0 0 0-1.616713 0c-15.560859 3.112172-15.560859 37.346061-15.560858 37.34606l-18.67303-6.224343-9.457769 31.081299s-33.183026 4.041781-55.29157 4.041782c-11.074481 0-19.360133-1.050863-19.360133-4.041782v-24.856956L472.888429 969.340443s-2.707994 18.955955-18.268852 18.955955a18.349688 18.349688 0 0 1-3.51635-0.323342c-18.67303-3.112172-83.988218-12.408269-83.988219-12.408269v-31.121717s-15.035427-32.334252-38.316088-32.334252a26.352415 26.352415 0 0 0-8.366487 1.414624l-15.560859 18.67303-15.560858-9.336515-12.448687 15.560858L227.107699 913.442606v-21.785202l-21.744784-12.448687-21.785202 15.560859-46.682576-31.121717S40.417814 792.189163 40.417814 776.426215c0 0-31.121717-28.009545-18.67303-68.467778 0 0-18.67303-52.866501 12.448687-68.427359 0 0 15.560859-84.028636 87.10039-105.813839a141.46235 141.46235 0 0 1 36.376033-6.83061 37.628985 37.628985 0 0 1 7.315624 0.646685s304.911992-43.570404 323.585023-59.131263c0 0 37.305643-21.785202 68.42736-21.785202a124.08269 124.08269 0 0 0 12.448686-9.336515s404.501487-161.671258 472.888429-242.506886l28.009545-46.682576s28.009545-46.682576 83.988219-62.243434c0 0 46.682576-31.081299 52.906919-40.417815 0 0 21.340606-29.100826 44.095835-29.100826m0-16.167126c-30.070854 0-54.442796 32.051327-57.150789 35.68893l-0.242507 0.363761c-4.041781 4.890556-26.756593 21.583113-46.480487 34.799738a169.754821 169.754821 0 0 0-90.9805 68.710284l-27.322442 45.389206c-54.079036 61.839256-327.869311 181.880165-465.774894 237.171735a16.167126 16.167126 0 0 0-5.456405 3.556768 77.885128 77.885128 0 0 1-6.264761 4.769302c-33.668039 2.061309-69.72073 22.876483-71.337442 23.806093-0.485014 0.323343-0.970028 0.606267-1.455042 0.970027-17.985927 9.376933-172.786157 35.567677-313.844329 55.776584a61.313824 61.313824 0 0 0-7.436878-0.444596 152.94101 152.94101 0 0 0-41.145335 7.598549C48.784302 539.052391 25.867401 606.792648 20.208907 629.345788c-24.978209 18.349688-22.108544 55.534077-15.075845 79.016828-9.215262 38.113999 11.802002 66.20438 20.855593 76.18758 3.597185 9.094008 15.399187 23.11899 52.543158 53.755693 24.250689 19.845147 47.854692 37.467314 48.865138 38.235252l0.646685 0.444596 46.682576 31.121717a16.167126 16.167126 0 0 0 8.972755 2.707994 16.167126 16.167126 0 0 0 9.376932-2.990918l13.378297-9.538605 4.607631 2.627158v12.529523a16.167126 16.167126 0 0 0 8.972755 14.469577l49.754329 24.897374a16.167126 16.167126 0 0 0 19.885565-4.365124l3.597185-4.526795 3.435515 2.061309a16.167126 16.167126 0 0 0 20.734338-3.51635l11.882838-14.227071c8.083563 0.323343 17.420078 12.448687 21.785202 20.208907v27.201189a16.167126 16.167126 0 0 0 13.86331 16.167126c0.646685 0 65.355606 9.336515 83.624458 12.367851a36.376033 36.376033 0 0 0 6.183926 0.525432 32.617176 32.617176 0 0 0 28.494559-16.611722l20.208907 4.041782v11.64033c0 20.208907 25.786566 20.208907 35.527259 20.208907a565.121881 565.121881 0 0 0 57.312461-4.284288 16.167126 16.167126 0 0 0 13.459132-11.397824l4.567213-15.15668 2.829247 0.970027a16.167126 16.167126 0 0 0 21.300188-15.318351 67.821093 67.821093 0 0 1 2.627158-18.107181 126.265252 126.265252 0 0 1 16.167126 27.564949 16.167126 16.167126 0 0 0 14.873756 9.781111h5.577658v5.618077a16.167126 16.167126 0 0 0 16.167126 16.167125h96.477323a16.167126 16.167126 0 0 0 16.167126-16.167125v-4.041782L816.439851 998.320016a270.55685 270.55685 0 0 0 82.250253 14.186653c78.168053 0 112.159435-44.459596 118.90921-54.806556 1.899637-1.495459 11.923255-7.679385 51.977309-14.712085 26.797011-4.688466 55.614913-7.76022 72.752066-9.61944l7.356042-0.808356h2.425069c20.855592 0 64.102654 18.188016 80.835629 25.988655a249.741675 249.741675 0 0 0 144.129926 49.107644c3.314261 0 5.779747 0 7.234789-0.202089l35.042245 2.707994c9.902365 5.17348 32.091745 9.376933 96.477323 9.376933 51.168953 0 105.328824-2.748411 105.854256-2.788829a15.399187 15.399187 0 0 0 4.688466-0.970028l27.605368-10.023618c16.692557 7.39646 41.145335 10.993646 74.247525 10.993646 56.58494 0 120.000491-10.589467 130.509123-12.448687 12.56994 0 97.811111-1.050863 146.514577-16.167126a64.668503 64.668503 0 0 0 46.9655-54.685303 96.275234 96.275234 0 0 0-1.980473-36.61854 16.167126 16.167126 0 0 0-5.052227-8.083563l-7.76022-6.628521c16.167126-22.75523 11.761584-58.848338 3.678021-84.877411 4.526795-7.679385 8.608994-22.795647 9.094008-60.626721a509.264462 509.264462 0 0 0-2.627157-61.879674 41.953691 41.953691 0 0 0-15.762948-28.979573c12.974118-70.326997-14.146235-201.523223-25.382388-235.191262s-8.568577-83.705294-8.528158-84.190308a16.167126 16.167126 0 0 0-4.688467-12.367851l-5.052227-5.052227c-5.779747-67.699839-49.471405-136.490959-88.919191-172.745738a60.626722 60.626722 0 0 0-42.115363-17.137154c-37.265225 0-67.821093 33.183026-71.175771 36.941883a16.854229 16.854229 0 0 0-2.182562 3.152589c-1.050863 1.940055-25.746148 48.501377-35.446423 80.835629-6.143508 20.491832-48.501377 75.702566-169.310225 84.87741-4.607631 0.36376-9.376933 0.525432-14.105817 0.525432-90.818829 0-176.827938-64.951428-202.493251-86.17078 29.58584-107.753893-76.793847-221.772548-81.563149-226.703522a7.598549 7.598549 0 0 0-1.010445-0.970027A42.883301 42.883301 0 0 0 1251.295117 0z"/><path d="M385.788039 849.824966a8.083563 8.083563 0 0 1-8.083563-7.073118l-24.897374-199.098153a8.083563 8.083563 0 0 1 8.083563-9.094009s18.551777 0.323343 47.814274 0.323343c90.374233 0 311.863856-3.314261 416.303489-34.233889 110.421469-32.617176 338.256689-126.022745 435.542368-165.915128 22.997736-9.417351 38.194835-15.641694 43.044972-17.460496a113.16988 113.16988 0 0 1 44.055418-7.517713c19.198462 0 46.440069 2.707994 84.14989 7.073117 17.783838 2.020891 41.994109 6.10309 70.044072 10.872392 65.234352 10.993646 146.393324 24.695285 212.840211 24.695285 40.741157 0 70.529086-5.335152 88.595849-15.884201 71.701203-41.832438 99.549077-86.938719 99.832002-87.423733a8.083563 8.083563 0 0 1 5.941419-4.041781h0.970027a8.083563 8.083563 0 0 1 5.73933 2.344233l49.754329 49.794747a8.083563 8.083563 0 0 1 2.142144 3.758857l23.725257 95.0627 19.885565 91.869692a8.083563 8.083563 0 0 1-0.282925 4.486377L1964.305781 719.92211a8.083563 8.083563 0 0 1-6.749775 5.254316l-1185.090737 124.608122H385.788039z" fill="#312273"/><path d="M1910.347999 353.292116L1960.263999 403.046445l23.725257 95.0627 19.845147 91.627185-46.803829 127.558623-1185.414079 124.44645H385.788039L360.931083 642.643249s18.228434 0.323343 47.935528 0.323343c96.558159 0 314.046418-3.637603 418.728557-34.557232 136.935555-40.417814 454.255816-174.241198 479.15319-183.577713a106.541359 106.541359 0 0 1 41.226171-6.992282c17.905092 0 42.802465 2.344233 83.22028 6.992282 57.87831 6.668939 187.417405 35.648512 283.813892 35.648513 38.316088 0 71.418278-4.567213 92.678049-16.975482 74.651703-43.570404 102.661249-90.212562 102.661249-90.212562m0-16.167126h-1.980473a16.167126 16.167126 0 0 0-11.84242 7.679385c-0.323343 0.525432-27.484114 44.055418-97.002755 84.634903-16.813811 9.781111-45.227534 14.752502-84.51365 14.752502-65.759784 0-146.554995-13.620803-211.506422-24.614449-28.29247-4.728884-52.543159-8.851501-70.448251-10.912809-37.992746-4.405542-65.517277-7.113535-85.079499-7.113536a122.78932 122.78932 0 0 0-46.884665 8.083563c-4.971391 1.859219-20.208907 8.083563-43.327897 17.581749-97.002755 39.811547-324.716721 133.095863-434.734012 165.71304-103.590858 30.636703-324.110454 33.910546-414.161344 33.910546-29.181662 0-47.450514-0.323343-47.652604-0.323343h-0.282924a16.167126 16.167126 0 0 0-16.167126 18.147599l24.897374 199.138572a16.167126 16.167126 0 0 0 16.167125 14.146235h385.828457a12.125344 12.125344 0 0 0 1.697548 0l1185.414079-124.446451a16.167126 16.167126 0 0 0 13.49955-10.508632l46.642158-127.558622a16.167126 16.167126 0 0 0 0.646685-9.013173l-19.885565-91.586767a2.020891 2.020891 0 0 0 0-0.485014l-23.725257-95.062699a16.167126 16.167126 0 0 0-4.24387-7.558132l-49.916001-49.875583a16.167126 16.167126 0 0 0-11.438241-4.728884z"/><path d="M974.069328 800.272726a7.517713 7.517713 0 0 1-1.697549 0l-140.371069-30.030437a8.083563 8.083563 0 0 1-1.172117-15.439605c4.041781-1.535877 405.673603-152.94101 470.948374-198.896064 3.597185-3.273843 16.167126-11.519077 50.360597-11.519078a416.303489 416.303489 0 0 1 80.835628 9.821529c105.086317 21.623531 195.864729 49.713912 196.753921 49.996837a8.083563 8.083563 0 0 1 4.688467 3.799274c0.36376 0.606267 33.708457 62.607195-30.070854 112.927374-38.801102 30.677121-264.857938 51.330624-339.105463 58.120817-147.403769 13.459132-289.391551 21.340606-291.008264 21.381024z" fill="#24252A"/><path d="M1351.935475 552.066927A402.642267 402.642267 0 0 1 1431.194809 561.80762c105.813838 21.785202 196.0264 49.794747 196.0264 49.794748s31.121717 56.019091-28.009546 102.661248S974.069328 792.189163 974.069328 792.189163l-140.411488-30.030436s407.977419-153.587695 473.292607-200.229853c0 0 8.32607-9.659858 45.187117-9.659858m0-16.167126c-34.920992 0-49.633076 8.083563-55.453242 13.297461-52.543159 36.376033-329.081845 145.059536-468.846647 197.602695a16.167126 16.167126 0 0 0 2.303815 30.960046l140.37107 30.030436a15.601276 15.601276 0 0 0 3.395096 0.36376h0.848774c1.455041 0 143.564077-8.083563 291.008264-21.421441 271.324788-24.816538 325.929255-45.995473 343.551423-59.818366 55.29157-43.65124 45.187117-99.67033 32.334251-123.193498a16.167126 16.167126 0 0 0-9.336515-7.598549c-0.92961-0.282925-92.233453-28.29247-197.562277-50.158508a420.34527 420.34527 0 0 0-82.533177-10.023618z"/><path d="M1758.174927 430.247635c-49.835165 0-394.801211-56.58494-442.130472-75.702567-48.501377-19.319715-106.945537-102.014564-109.411023-105.530913a8.083563 8.083563 0 0 1 0.606267-10.023618l28.009545-31.121717a8.083563 8.083563 0 0 1 6.022255-2.667576 8.083563 8.083563 0 0 1 6.022254 2.748411l63.860147 72.752066 187.013227 58.242071 165.025936 24.250688 184.547741-83.01819a8.083563 8.083563 0 0 1 3.314261-0.727521 8.083563 8.083563 0 0 1 6.911446 4.041781l28.009545 46.682576a8.083563 8.083563 0 0 1-1.535876 10.185289c-9.376933 8.406905-92.475959 82.411924-118.54545 88.919192a31.930073 31.930073 0 0 1-7.760221 0.687103z" fill="#312273"/><path d="M1241.43317 213.284807l65.315188 74.651703 189.963728 59.131262L1664.567269 371.843893 1851.1359 287.93651l28.292471 46.682576s-90.25298 80.835629-115.150354 87.10039a27.282025 27.282025 0 0 1-5.779747 0.444596c-53.674858 0-394.679958-57.312461-439.139554-75.0963-46.642158-18.67303-105.77342-102.701666-105.77342-102.701666l28.009545-31.081299m0-16.167126a16.167126 16.167126 0 0 0-12.125344 5.335151l-27.969128 31.121718a16.167126 16.167126 0 0 0-1.212534 20.208907c2.505904 3.556768 62.445523 88.151253 113.16988 108.36016 48.986391 19.60264 392.0528 76.268416 445.12139 76.268416a39.245698 39.245698 0 0 0 9.700276-0.92961c26.716175-6.668939 100.155344-71.135353 122.021382-90.737993a16.167126 16.167126 0 0 0 3.071754-20.208907l-28.009546-46.682576a16.167126 16.167126 0 0 0-14.227071-8.083563 15.884201 15.884201 0 0 0-6.628521 1.414624L1662.263454 355.272589 1500.1476 331.426078l-184.224398-57.393296-62.32427-71.418278a16.167126 16.167126 0 0 0-12.125344-5.496823z"/><path d="M1729.882457 401.793493a8.083563 8.083563 0 0 1-1.414623 0c-15.15668-2.667576-370.833447-65.436442-395.690403-71.660785C1306.222926 323.342515 1245.31328 254.632231 1238.442252 246.548668a8.083563 8.083563 0 0 1 3.51635-12.974118l27.160771-9.053591c-34.799738-49.18848-71.175771-59.858783-96.153981-59.858783a67.578586 67.578586 0 0 0-22.068126 3.273843 8.649412 8.649412 0 0 1-2.910083 0.525432 13.782475 13.782475 0 0 1-10.872392-5.011809c-5.456405-6.668939-4.041781-17.177571-3.273843-20.208908a8.083563 8.083563 0 0 1 4.324706-5.658494c59.292934-29.666676 71.175771-72.549977 70.690757-103.307933a8.083563 8.083563 0 0 1 2.425069-5.860583c9.417351-9.296097 24.008182-20.208907 39.932801-20.208908a34.638067 34.638067 0 0 1 23.48275 9.336515l0.525432 0.485014a392.0528 392.0528 0 0 1 52.543159 73.641258c30.434614 55.29157 39.245698 107.107208 25.624894 150.313852 19.9664 17.0159 112.967791 91.465514 211.74893 91.465514 4.930973 0 9.902365 0 14.712084-0.565849 112.078599-8.608994 166.925574-58.969591 176.464178-90.697576s33.789293-77.319279 34.840156-79.259334a6.871028 6.871028 0 0 1 1.091281-1.576295c1.212534-1.414624 30.798375-34.233889 65.072681-34.233889a52.785666 52.785666 0 0 1 36.658958 14.99501c38.801102 35.729348 81.967328 103.833365 86.494123 170.280252l6.83061 6.911446a8.083563 8.083563 0 0 1 0.727521 10.629885l-12.125344 15.884201a8.083563 8.083563 0 0 1-6.426433 3.193008 8.083563 8.083563 0 0 1-4.041781-1.131699c-0.606267-0.36376-63.25388-37.022718-99.87242-37.022718-15.924619 0-19.440969 6.992282-20.774756 13.095372-12.125344 57.433714-109.128099 76.995936-113.169881 77.804292z" fill="#24252A"/><path d="M1251.295117 16.167126a26.675758 26.675758 0 0 1 18.147598 7.315624s111.997764 118.222107 74.651704 220.883356c0 0 105.611749 97.002755 221.125862 97.002755 5.092645 0 10.225707 0 15.318352-0.56585 121.253443-9.336515 174.241198-65.355606 183.577713-96.477323s34.233889-77.763875 34.233889-77.763875 28.009545-31.525895 59.050427-31.525895a44.782938 44.782938 0 0 1 31.162135 12.852865c40.417814 37.346061 80.835629 105.77342 84.028636 168.016855l9.013172 9.013172-12.125344 15.884201s-64.668503-38.154417-103.995036-38.154417c-14.550413 0-25.624894 5.213898-28.656231 19.481387C1825.511006 375.077318 1729.882457 393.70993 1729.882457 393.70993s-370.267598-65.315188-395.164971-71.539531-90.212562-80.835629-90.212562-80.835629l37.305643-12.448687c-39.366951-60.990482-82.452341-72.226634-108.804757-72.226634a74.368779 74.368779 0 0 0-24.978209 3.799274c-9.336515 0-6.224343-15.560859-6.224344-15.560858 65.072681-32.334252 75.662149-80.835629 75.177135-110.663976 8.366488-8.083563 21.057681-17.985927 34.274307-17.985928m0-16.167125c-14.79292 0-30.555868 7.841056-45.591295 22.633976a16.167126 16.167126 0 0 0-4.850138 11.761584c0.444596 28.29247-10.670303 68.184853-66.244797 95.951891a16.167126 16.167126 0 0 0-8.608995 11.316988c-1.010445 5.052227-2.546322 17.783838 4.971391 26.918265a21.663949 21.663949 0 0 0 17.096736 8.083562 15.480023 15.480023 0 0 0 5.901001-1.131698 62.041345 62.041345 0 0 1 19.077208-2.667576c21.502277 0 52.300652 8.770666 82.977773 47.652603l-16.611722 5.537241a16.167126 16.167126 0 0 0-7.032699 25.988654c16.167126 18.390106 70.812011 79.016827 98.457796 85.928274 25.139881 6.305179 381.099572 69.114463 396.094581 71.782038a16.167126 16.167126 0 0 0 2.829247 0.242507 15.803365 15.803365 0 0 0 3.071754-0.282925c10.872392-2.101726 106.460523-22.472305 119.636731-84.028636 0.646685-2.990918 1.414624-6.709357 12.852864-6.709357 28.615813 0 78.855156 25.907819 95.790221 35.891019a15.803365 15.803365 0 0 0 8.083563 2.263398 16.167126 16.167126 0 0 0 12.852865-6.386015l12.125344-15.884201a16.167126 16.167126 0 0 0-1.455041-21.219352l-4.688467-4.728885c-5.779747-67.699839-49.471405-136.490959-88.919192-172.745739a60.626722 60.626722 0 0 0-42.15578-17.137153c-37.224807 0-67.780675 33.183026-71.135353 36.941882a16.854229 16.854229 0 0 0-2.182562 3.15259c-1.050863 1.940055-25.746148 48.501377-35.446424 80.835629-6.143508 20.491832-48.501377 75.702566-169.310224 84.87741-4.648049 0.36376-9.376933 0.525432-14.105818 0.525432-90.576322 0-176.78752-64.991846-202.49325-86.170781 29.58584-107.753893-76.793847-221.772548-81.563149-226.703521a7.598549 7.598549 0 0 0-1.010446-0.970027A42.883301 42.883301 0 0 0 1251.295117 0z"/><path d="M2031.520606 683.909838a7.841056 7.841056 0 0 1-4.041781-1.131699l-40.417815-23.846511a8.083563 8.083563 0 0 1-4.041781-7.234788c9.013173-274.154035-191.863365-352.322088-194.005509-353.090027a8.083563 8.083563 0 0 1 2.101726-15.601276c6.507268-4.041781 20.53225-37.143971 30.272943-71.903292a8.083563 8.083563 0 0 1 7.800638-5.901001c5.577658 0 22.512723 0 147.76753 99.023645a8.083563 8.083563 0 0 1 3.031336 5.658494c0 0.848774 0 1.697548 0.202089 2.505905l7.153953 7.153953a8.083563 8.083563 0 0 1 2.344233 6.224343c0 0.485014-2.829247 51.815638 8.972755 87.181226 11.357406 34.112635 39.407369 169.754821 23.967764 236.565468 6.871028 3.435514 14.186653 10.831974 16.571304 24.978209a8.083563 8.083563 0 0 1-3.395096 8.083563 8.083563 8.083563 0 0 1-4.284289 1.333788z" fill="#312273"/><path d="M1829.471952 213.284807c17.0159 0 95.022282 59.575858 142.75572 97.285679 0 1.778384 0.282925 3.597185 0.363761 5.375569l9.336515 9.336515s-3.112172 52.906919 9.336515 90.212562 40.417814 180.465541 21.785202 239.596804c0 0 14.995009 0 18.470941 20.734339l-40.417814-23.846511C2000.681814 368.852974 1792.125891 291.008264 1792.125891 291.008264c15.560859 0 37.346061-77.763875 37.346061-77.763875m0-16.167126a16.167126 16.167126 0 0 0-15.560859 11.802002c-8.083563 29.343333-20.208907 59.333352-26.473668 66.648976a16.167126 16.167126 0 0 0-0.970028 30.636703c0.485014 0 50.198926 19.360133 97.972783 71.297025 63.860147 69.437805 94.375597 161.671258 90.657157 273.951946a16.167126 16.167126 0 0 0 8.083563 14.42916l40.417815 23.84651a16.167126 16.167126 0 0 0 24.250688-16.571304 41.307006 41.307006 0 0 0-15.520441-27.524531c13.054954-70.286579-14.105817-201.563641-25.341969-235.23168s-8.568577-83.705294-8.528159-84.190308a16.167126 16.167126 0 0 0-4.688466-12.367851l-5.092645-5.052227a16.167126 16.167126 0 0 0-6.022254-10.91281c-127.477787-100.761611-144.574522-100.761611-152.779339-100.761611z"/><path d="M248.892901 831.192354a8.366488 8.366488 0 0 1-2.829247-0.525432l-214.69943-80.835629a8.568577 8.568577 0 0 1-2.546322-1.535877l-15.35877-13.903728a8.083563 8.083563 0 0 1-2.667576-5.820165 72.954155 72.954155 0 0 1 2.546323-20.208907c-3.475932-11.27657-14.954591-55.776584 13.742057-73.843347 3.51635-14.914174 19.23888-69.114463 66.608558-97.002755a8.083563 8.083563 0 0 1 4.041781-1.131699 8.083563 8.083563 0 0 1 5.860583 2.546322c17.662585 18.066763 54.038618 41.630349 127.437369 48.986392 96.032727 9.61944 264.170835 48.501377 311.217171 201.684894a8.083563 8.083563 0 0 1-1.010445 6.83061 8.083563 8.083563 0 0 1-5.860583 3.597186l-285.592277 31.081299z" fill="#382576"/><path d="M97.811111 544.104618c17.460496 18.390106 55.129899 44.136253 132.40876 51.856056 124.486868 12.448687 263.200808 62.243434 304.265307 196.0264l-285.592277 31.121717-214.659012-80.835629-15.35877-13.863311a64.668503 64.668503 0 0 1 2.910083-20.208907s-18.67303-53.109008 12.448687-68.669866c0 0 12.125344-64.91101 63.577222-95.42646m0-16.167126a16.167126 16.167126 0 0 0-8.083563 2.263398C42.479123 558.048764 25.018627 610.308998 20.208907 629.305371c-24.978209 18.390106-22.108544 55.614913-15.075845 79.057245a80.512286 80.512286 0 0 0-2.222979 20.208907A16.167126 16.167126 0 0 0 8.083563 740.333107l15.358769 13.86331a15.884201 15.884201 0 0 0 5.133063 3.112172l214.659012 80.835629a16.167126 16.167126 0 0 0 5.698912 1.050863 13.13579 13.13579 0 0 0 1.778384 0l285.592277-31.121717a16.167126 16.167126 0 0 0 13.701639-20.815175c-48.501377-157.629476-220.075-197.521859-318.128618-207.343388-32.091745-3.193007-90.657158-13.580386-122.304306-46.884664a16.167126 16.167126 0 0 0-11.721166-5.052227z"/><path d="M538.971555 1015.780512c-10.266125 0-27.443696 0-27.443696-12.125344v-18.268852l-32.900101-6.547686c-3.475932 8.447323-10.791556 17.662585-23.967764 17.662585a28.737066 28.737066 0 0 1-4.850137-0.404179c-18.349688-3.071754-83.179862-12.125344-83.826547-12.408269a8.083563 8.083563 0 0 1-6.911447-8.083563v-29.262497c-4.405542-8.568577-16.167126-26.311997-30.232525-26.311997a17.056318 17.056318 0 0 0-3.758857 0.444596L311.217171 937.167863a8.083563 8.083563 0 0 1-6.224343 2.910083 7.841056 7.841056 0 0 1-4.041782-1.172117l-9.498186-5.698912-8.083563 10.064036a8.083563 8.083563 0 0 1-9.902365 2.182562l-49.956418-24.897374a8.083563 8.083563 0 0 1-4.486378-7.113535v-17.096736l-13.176207-7.558131-17.581749 12.529523a8.083563 8.083563 0 0 1-4.688467 1.495459 7.841056 7.841056 0 0 1-4.486377-1.374206l-47.005918-31.323806c-41.872856-31.040881-91.101754-70.488668-98.700303-89.242534-6.749775-6.830611-30.475032-34.355142-20.208907-72.752066-3.51635-11.357406-15.116263-56.58494 14.388741-74.247525a8.083563 8.083563 0 0 1 6.749775-3.637604 6.183926 6.183926 0 0 1 1.212535 0 8.083563 8.083563 0 0 1 6.830611 8.730248c-6.183926 66.285216 2.101726 74.328361 2.465486 74.651703 16.611722 11.074481 196.95601 64.062236 347.229444 64.062236 38.639431 0 74.166689 1.455041 108.481414 2.829247 32.617176 1.333788 63.415551 2.58674 95.345624 2.58674a871.448497 871.448497 0 0 0 220.560013-26.958682h0.727521a580.359397 580.359397 0 0 1 78.41056-6.143508c26.311997 0 46.440069 2.829247 59.858783 8.447324 48.501377-19.804729 174.524123-55.049063 327.384297-55.049064a1040.718304 1040.718304 0 0 1 157.871983 12.125345 1401.689804 1401.689804 0 0 0 137.784329-33.748875c7.113535-2.142144 14.631249-4.526795 22.512723-7.073118 54.644885-17.37966 129.337006-41.185753 232.604522-41.185753a728.733194 728.733194 0 0 1 97.891947 6.830611c4.041781-4.890556 12.367851-10.710721 28.494559-10.710721 15.035427 0 34.314724 5.17348 57.393296 15.439605a7.800638 7.800638 0 0 1 4.041782 3.799275c7.598549 3.071754 16.167126 10.751139 18.632612 27.039518 1.091281 7.76022 8.32607 101.89331-7.356042 119.960073 5.698912 17.581749 17.905092 64.668503-6.10309 87.059972l13.903728 11.882837a8.083563 8.083563 0 0 1 2.505904 4.041782c6.10309 21.946873 5.698912 67.255243-39.609458 81.401478-48.501377 15.197098-135.318843 15.924619-144.817029 15.924619-7.881474 1.414624-72.347888 12.448687-129.781602 12.448687-34.112635 0-58.322906-3.799275-73.843347-11.680749l-30.757957 11.195735a8.083563 8.083563 0 0 1-2.344233 0.485014c-0.565849 0-54.483214 2.788829-105.450078 2.788829-70.973682 0-88.232089-5.294734-94.173507-9.215262l-37.305643-2.869664c-1.131699 0-3.597185 0.202089-7.275206 0.202089a241.415606 241.415606 0 0 1-139.966892-48.016364c-6.588104-3.071754-58.929173-27.079936-84.87741-27.079936a29.626258 29.626258 0 0 0-3.354679 0l-7.315624 0.767939c-77.359697 8.32607-121.253443 17.420078-130.145363 27.079936-4.041781 6.709357-35.32517 52.017727-112.684866 52.017727a263.362479 263.362479 0 0 1-81.401478-14.348324l-19.036791 2.101726v11.438241a8.083563 8.083563 0 0 1-8.083563 8.083563h-96.962337a8.083563 8.083563 0 0 1-8.083563-8.083563v-13.661221h-13.661221a8.083563 8.083563 0 0 1-7.436878-4.890555c-7.881474-18.349688-20.208907-35.68893-25.180298-35.688931-5.17348 1.010445-9.05359 16.167126-9.094008 29.424169a8.083563 8.083563 0 0 1-8.083563 8.083563 7.638967 7.638967 0 0 1-2.546322-0.404178l-10.791557-3.556768-6.709357 23.078572a8.083563 8.083563 0 0 1-6.749775 5.698912c-1.576295 0.161671-34.153053 4.203453-56.504105 4.203453z" fill="#FFFFFF"/><path d="M1959.69815 637.510187c11.761584 0 28.979573 3.556768 54.119453 14.712084-0.242507 0.970028-0.485014 1.940055-0.767938 2.869665 0 0 15.560859 0 18.67303 21.785202s6.10309 115.190771-8.608994 115.190771h-0.727521s27.969128 71.539532-9.336515 90.212562l21.744784 18.67303s15.560859 56.019091-34.193471 71.57995-143.119481 15.520441-143.119481 15.52044-69.15488 12.448687-129.094499 12.448687c-29.9496 0-57.595386-3.112172-73.156244-12.448687l-34.233889 12.448687s-53.674858 2.788829-105.086317 2.788829c-42.802465 0-83.947801-1.940055-90.980501-9.013172l-40.417814-3.112172s-2.58674 0.242507-7.315624 0.242507a234.423324 234.423324 0 0 1-135.803857-46.884665s-59.292934-28.29247-88.919192-28.29247a35.567677 35.567677 0 0 0-4.24387 0.202089c-27.969128 3.112172-127.558622 12.448687-143.119481 31.121717 0 0-28.090381 48.703466-106.137181 48.703467a254.632231 254.632231 0 0 1-80.512286-14.509996l-28.009545 3.112172v18.67303h-96.638995v-21.785202h-21.744784s-17.420078-40.417814-32.617176-40.417814a7.073118 7.073118 0 0 0-1.616713 0c-15.560859 3.112172-15.560859 37.346061-15.560858 37.34606l-18.67303-6.224343-9.457769 31.081299s-33.183026 4.041781-55.29157 4.041782c-11.074481 0-19.360133-1.050863-19.360133-4.041782v-24.856956L472.888429 969.340443s-2.707994 18.955955-18.268852 18.955955a18.349688 18.349688 0 0 1-3.51635-0.323342c-18.67303-3.112172-83.988218-12.408269-83.988219-12.408269v-31.121717s-15.035427-32.334252-38.316088-32.334252a26.150326 26.150326 0 0 0-8.366487 1.414624l-15.560859 18.67303-15.560858-9.336515-12.448687 15.560858L227.107699 913.442606v-21.785202l-21.744784-12.448687-21.785202 15.560859-46.682576-31.121717S40.417814 792.189163 40.417814 776.426215c0 0-31.121717-28.009545-18.67303-68.467778 0 0-18.67303-52.866501 12.448687-68.427359l0.242507-1.212535c-3.15259 34.193471-4.526795 75.055881 5.981836 82.088581 18.67303 12.448687 202.089072 65.355606 351.634986 65.355606 74.692121 0 137.703494 5.456405 203.827038 5.456405a876.419888 876.419888 0 0 0 222.297979-27.241607 575.630513 575.630513 0 0 1 77.157608-6.062672c22.957319 0 45.712548 2.182562 59.73753 9.174844 0 0 131.398315-55.776584 327.384297-55.776584a1030.330925 1030.330925 0 0 1 157.993236 12.125344 1411.026319 1411.026319 0 0 0 140.007309-34.233889c56.58494-17.177571 136.127199-47.89511 252.773012-47.89511a719.720021 719.720021 0 0 1 101.933728 7.477296s3.51635-11.357406 24.452777-11.357406m0-16.167126c-15.72253 0-25.463223 4.930973-31.364224 10.266125a731.562441 731.562441 0 0 0-95.022281-6.386014c-104.358797 0-179.899692 24.0486-235.070009 41.589931-7.881474 2.505904-15.318352 4.890556-22.391469 7.032699-62.000927 18.875119-122.42556 30.798375-135.56135 33.263862a1049.933565 1049.933565 0 0 0-157.629476-12.125345c-174.887883 0-297.960128 43.166226-327.182208 54.442796-14.348324-5.294734-34.0318-7.841056-59.899201-7.841056a580.763575 580.763575 0 0 0-79.663512 6.264762l-1.414623 0.282924a865.507078 865.507078 0 0 1-218.539123 26.756593c-31.727984 0-62.485941-1.29337-95.022282-2.58674-34.39556-1.414624-70.003655-2.869665-108.804756-2.869665-142.0282 0-316.633158-49.309734-341.045518-61.75842-1.374206-3.758857-4.971391-19.077208-0.404178-67.982764A16.167126 16.167126 0 0 0 36.901465 622.434342a16.45005 16.45005 0 0 0-2.465487 0 16.167126 16.167126 0 0 0-12.125344 5.658494c-27.322443 17.783838-24.493196 56.58494-17.258407 80.552704-9.215262 38.113999 11.802002 66.20438 20.855592 76.18758 3.597185 9.094008 15.399187 23.11899 52.543159 53.755694 24.250689 19.845147 47.854692 37.467314 48.865137 38.235252l0.646685 0.444596 46.682576 31.121717a16.167126 16.167126 0 0 0 8.972755 2.707994 16.167126 16.167126 0 0 0 9.376933-2.990919l13.378296-9.538604 4.607631 2.627158V913.442606a16.167126 16.167126 0 0 0 8.972755 14.469577l49.75433 24.897374a16.167126 16.167126 0 0 0 19.885564-4.365124l3.597186-4.526795 3.435514 2.061309a16.167126 16.167126 0 0 0 20.734339-3.51635l11.882837-14.227071c8.083563 0.323343 17.420078 12.448687 21.785202 20.208907v27.201189a16.167126 16.167126 0 0 0 13.863311 16.167126c0.646685 0 65.355606 9.336515 83.624458 12.367851a36.376033 36.376033 0 0 0 6.183925 0.525432 32.617176 32.617176 0 0 0 28.494559-16.611722l20.208908 4.041782v11.64033c0 20.208907 25.786566 20.208907 35.527258 20.208907a565.121881 565.121881 0 0 0 57.312461-4.284288 16.167126 16.167126 0 0 0 13.459133-11.397824l4.567213-15.15668 2.829247 0.970027a16.167126 16.167126 0 0 0 21.300188-15.318351 67.821093 67.821093 0 0 1 2.627158-18.107181 126.265252 126.265252 0 0 1 16.167125 27.564949 16.167126 16.167126 0 0 0 14.873756 9.781111h5.577659v5.618077a16.167126 16.167126 0 0 0 16.167125 16.167125h96.477323a16.167126 16.167126 0 0 0 16.167126-16.167125v-4.041782L816.439851 998.320016a270.55685 270.55685 0 0 0 82.250253 14.186653c78.168053 0 112.159435-44.459596 118.90921-54.806556 1.899637-1.495459 11.923255-7.679385 51.977309-14.712085 26.797011-4.688466 55.614913-7.76022 72.752066-9.61944l7.356042-0.808356h2.425069c20.855592 0 64.102654 18.147599 80.835629 25.988655a249.741675 249.741675 0 0 0 144.129926 49.107644c3.314261 0 5.779747 0 7.234789-0.202089l35.042245 2.707994c9.902365 5.17348 32.091745 9.376933 96.477323 9.376933 51.168953 0 105.328824-2.748411 105.854256-2.788829a15.399187 15.399187 0 0 0 4.688466-0.970028l27.605368-10.023618c16.692557 7.39646 41.145335 10.993646 74.247525 10.993646 56.58494 0 120.000491-10.589467 130.509123-12.448687 12.610358 0 97.811111-1.050863 146.514577-16.167126a64.668503 64.668503 0 0 0 46.9655-54.685303 96.275234 96.275234 0 0 0-1.980473-36.61854 16.167126 16.167126 0 0 0-5.052227-8.083563l-7.76022-6.628521c16.167126-22.75523 11.761584-58.848338 3.678021-84.877411 4.526795-7.679385 8.608994-22.795647 9.094008-60.626721a509.264462 509.264462 0 0 0-2.627157-61.879674c-2.627158-18.188016-12.125344-27.726621-21.138517-32.334252a15.480023 15.480023 0 0 0-6.224344-4.850137c-24.250689-10.710721-44.459596-16.167126-60.626721-16.167126z"/><path d="M1515.991383 1011.294135c-70.973682 0-88.232089-5.294734-94.173507-9.215262l-37.305643-2.869665c-1.131699 0-3.597185 0.202089-7.275207 0.202089a241.415606 241.415606 0 0 1-139.966891-48.016363c-6.588104-3.071754-58.929173-27.079936-84.87741-27.079936a30.111272 30.111272 0 0 0-3.354679 0l-7.315624 0.767938c-77.359697 8.32607-121.253443 17.420078-130.145363 27.079936-4.041781 6.709357-35.32517 52.017727-112.684866 52.017727a256.572286 256.572286 0 0 1-74.449614-12.125344 8.083563 8.083563 0 0 1-5.37557-5.335152 8.083563 8.083563 0 0 1 1.414624-7.436877l19.562222-24.250689a8.083563 8.083563 0 0 1 6.305179-3.031336 7.558131 7.558131 0 0 1 1.374206 0 135.520932 135.520932 0 0 0 22.391469 1.778384c50.683939 0 110.178962-24.250689 157.993236-43.610822 32.617176-13.257043 58.403742-23.725257 74.368779-23.725257h2.788829c3.758857 0.323343 8.285652 0.444596 13.459132 0.444596 38.073581 0 100.680776-8.528159 108.400579-9.61944 55.614913-18.753866 582.824884-30.798375 605.337606-31.323806 1.131699 0 139.845638-7.76022 199.421497-12.489105h0.646685a8.083563 8.083563 0 0 1 5.456405 2.101727 8.083563 8.083563 0 0 1 2.627157 5.901c0 21.219353-6.507268 33.789293-14.388741 41.226171l13.944145 12.125344a8.083563 8.083563 0 0 1 2.505905 4.041782c6.10309 21.946873 5.698912 67.255243-39.609458 81.401478-48.501377 15.197098-135.318843 15.924619-144.776611 15.924619-8.083563 1.414624-72.388306 12.448687-129.781603 12.448687-34.112635 0-58.322906-3.799275-73.843346-11.680749l-30.757957 11.195735a8.083563 8.083563 0 0 1-2.344233 0.485014c-0.808356-0.080836-54.604467 2.667576-105.571332 2.667576z" fill="#24252A"/><path d="M2032.450216 841.660567c0 16.692557-4.243871 32.980937-19.400551 40.417815l21.744784 18.67303s15.560859 56.019091-34.193471 71.57995-143.119481 15.520441-143.119481 15.52044-69.15488 12.448687-129.094499 12.448687c-29.9496 0-57.595386-3.112172-73.156244-12.448687l-34.233889 12.448687s-53.674858 2.788829-105.086317 2.788829c-42.802465 0-83.947801-1.940055-90.980501-9.013172l-40.417814-3.112172s-2.58674 0.242507-7.315624 0.242507a234.423324 234.423324 0 0 1-135.803857-46.884665s-59.292934-28.29247-88.919192-28.29247a35.567677 35.567677 0 0 0-4.24387 0.202089c-27.969128 3.112172-127.558622 12.448687-143.119481 31.121717 0 0-28.090381 48.703466-106.137181 48.703467a247.922874 247.922874 0 0 1-72.105381-11.802002l19.562223-24.250689a142.917392 142.917392 0 0 0 23.765674 1.899637c86.251616 0 195.864729-67.336079 232.362016-67.336078h2.142144c4.041781 0.36376 8.891919 0.485014 14.105817 0.485013 41.509095 0 110.340633-9.821529 110.340633-9.821529 49.794747-18.67303 603.599641-31.121717 603.599641-31.121717s139.522295-7.719803 199.866092-12.529522m0-16.167126h-1.29337c-58.201653 4.648049-192.307961 12.125344-199.219407 12.529523-57.554968 1.29337-546.165926 12.772029-606.671395 31.445059-9.942782 1.374206-69.963237 9.457769-106.622194 9.457769-4.971391 0-9.25568 0-12.772029-0.444596h-3.475932c-17.541331 0-42.681212 10.185289-77.440533 24.250688-47.288843 19.23888-105.975509 43.125808-155.083154 43.125808a123.314752 123.314752 0 0 1-21.017263-1.697548 20.451414 20.451414 0 0 0-2.748412 0 16.167126 16.167126 0 0 0-12.610358 6.062672l-19.562222 24.250689a16.167126 16.167126 0 0 0 8.083563 25.544059 264.211253 264.211253 0 0 0 76.793847 12.529522c78.168053 0 112.159435-44.459596 118.90921-54.806556 1.899637-1.455041 11.882837-7.679385 51.97731-14.712085 26.797011-4.688466 55.614913-7.76022 72.752066-9.619439l7.356042-0.808357h2.425069c20.855592 0 64.102654 18.147599 80.835629 25.988655a249.741675 249.741675 0 0 0 144.129926 49.107644c3.314261 0 5.779747 0 7.234789-0.202089l35.042245 2.707994c9.902365 5.17348 32.091745 9.376933 96.477323 9.376933 51.168953 0 105.328824-2.748411 105.854256-2.788829a15.399187 15.399187 0 0 0 4.688466-0.970028l27.605367-10.023618c16.692557 7.39646 41.145335 10.993646 74.247525 10.993646 56.58494 0 120.000491-10.589467 130.509123-12.448687 12.610358 0 97.811111-1.050863 146.514578-16.167126 51.209371-16.167126 51.815638-66.729812 44.985027-91.303843a16.167126 16.167126 0 0 0-5.052227-8.083563l-7.719802-6.588103c6.426432-8.891919 11.155317-21.785202 10.993645-40.417815a16.167126 16.167126 0 0 0-16.167126-16.167125z"/><path d="M538.971555 1015.780512c-10.266125 0-27.443696 0-27.443696-12.125344v-18.268852l-32.900101-6.547686c-3.475932 8.447323-10.791556 17.662585-23.967764 17.662585a28.737066 28.737066 0 0 1-4.850137-0.404179c-18.349688-3.071754-83.179862-12.125344-83.826547-12.408269a8.083563 8.083563 0 0 1-6.911447-8.083563v-29.222079c-0.767938-1.455041-2.142144-4.041781-4.041781-6.709358a8.083563 8.083563 0 0 1-1.212535-5.779747c1.333788-7.800638 5.577658-9.457769 8.89192-9.457769a8.083563 8.083563 0 0 1 8.083562 6.386015l245.942401 24.250689a8.083563 8.083563 0 0 1 6.992282 5.860583l4.041782 14.873756a8.083563 8.083563 0 0 1-7.800639 10.225707 7.800638 7.800638 0 0 1-2.546322-0.404179l-8.68983-2.869664-6.507268 23.118989a8.083563 8.083563 0 0 1-6.749775 5.698912c-1.576295 0.161671-34.153053 4.203453-56.504105 4.203453z" fill="#24252A"/><path d="M362.790302 932.479396c0.767938 0 1.252952 5.73933 1.252952 5.73933l252.005073 24.897374 4.041782 14.833338-16.571304-5.496823-9.376933 31.081299s-33.183026 4.041781-55.29157 4.041782c-11.074481 0-19.360133-1.050863-19.360133-4.041782v-24.856956L472.888429 969.340443s-2.707994 18.955955-18.268852 18.955955a18.349688 18.349688 0 0 1-3.51635-0.323342c-18.67303-3.112172-83.988218-12.408269-83.988219-12.408269v-31.121717a75.945073 75.945073 0 0 0-5.294733-9.215262c0.36376-1.980473 0.646685-2.748411 0.929609-2.748412m0-16.167125c-2.344233 0-14.227071 0.808356-16.854228 16.167125a16.167126 16.167126 0 0 0 2.425069 11.559495c1.050863 1.616713 1.940055 3.112172 2.627158 4.324707v27.160771a16.167126 16.167126 0 0 0 13.86331 16.167126c0.646685 0 65.355606 9.336515 83.624458 12.367851a36.376033 36.376033 0 0 0 6.183926 0.525431 32.617176 32.617176 0 0 0 28.494559-16.611721l20.208907 4.041781v11.640331c0 3.678021 1.333788 15.884201 18.713448 19.158044a97.002755 97.002755 0 0 0 16.813811 1.172116 565.121881 565.121881 0 0 0 57.312461-4.284288 16.167126 16.167126 0 0 0 13.459132-11.397824l4.567213-15.15668 0.767938 0.282925a15.803365 15.803365 0 0 0 5.092645 0.808356 16.167126 16.167126 0 0 0 15.560859-20.491832l-4.041782-14.833338a16.167126 16.167126 0 0 0-13.984564-11.761584L375.885674 923.142881a15.277934 15.277934 0 0 0-13.176207-6.83061z"/><path d="M1359.655277 930.74143a60.990482 60.990482 0 1 1 0-121.940546h416.909756a60.990482 60.990482 0 1 1 0 121.940546z" fill="#130826"/><path d="M1776.565033 816.884447a53.028173 53.028173 0 0 1 52.906919 52.866502 53.06859 53.06859 0 0 1-52.906919 52.906919H1359.655277a53.06859 53.06859 0 0 1-52.906919-52.906919 53.028173 53.028173 0 0 1 52.906919-52.866502h416.909756m0-16.167126H1359.655277a69.074045 69.074045 0 1 0 0 138.107672h416.909756a69.074045 69.074045 0 1 0 0-138.107672z"/><path d="M1992.80034 915.180572a65.638531 65.638531 0 1 1 37.709821-119.353806 8.083563 8.083563 0 0 1 3.112172 4.324706c11.357406 38.113999 8.528159 67.376497-7.477296 82.654431l7.113535 6.062672a8.32607 8.32607 0 0 1 2.829247 6.345597A8.083563 8.083563 0 0 1 2033.016065 901.317262a64.991846 64.991846 0 0 1-40.215725 13.86331z" fill="#AEACAD"/><path d="M1992.80034 792.189163a57.231625 57.231625 0 0 1 33.061772 10.468214c6.143508 20.572668 15.641694 65.517277-12.812447 79.744347l14.954591 12.812448a57.51455 57.51455 0 1 1-35.203916-103.025009m0-16.167126a73.722094 73.722094 0 1 0 45.106281 132.004582 16.167126 16.167126 0 0 0 0.606267-25.059045l-0.92961-0.808356c13.095372-18.349688 14.631249-47.652603 3.758857-84.109472a16.167126 16.167126 0 0 0-6.183926-8.608995 73.317915 73.317915 0 0 0-42.357869-13.418714z"/><path d="M1361.231572 566.496087l-6.992282-8.730248 6.264761 1.333788 4.890556 6.507268h0.242507l7.356042-4.041781 6.10309 1.252952-10.023618 4.971391 7.39646 9.094008-6.345597-1.333788-5.213898-6.790192h-0.242507l-7.841056 4.041781-6.183926-1.29337zM1400.800612 569.891183l-7.76022-1.616712-2.425069 11.680748-5.375569-1.131699 2.425068-11.680748-7.719802-1.576295 0.485014-2.344233 20.855592 4.365124zM1420.564923 583.875747l-0.485013 2.303816-17.622167-3.678022 2.910082-13.984563 16.894647 3.516349-0.485014 2.303816-11.519077-2.425069-0.687103 3.395096 10.670303 2.22298-0.444596 2.22298-10.710721-2.22298-0.767938 3.758857zM1428.365562 573.28628l9.134426 1.899637c8.406905 1.778384 10.710721 3.637603 10.023618 6.951864s-4.041781 4.041781-12.125345 2.505905l-3.718439-0.767939-0.970027 4.526795-5.375569-1.091281z m6.951864 9.094008c4.607631 0.970028 6.264761 0.687103 6.668939-1.333788s-1.010445-2.869665-5.577658-3.839692l-3.071754-0.646685-1.091281 5.17348zM1217.38457 630.23498l-10.872392-2.344233 5.698912-2.910083 7.881474 2.020891h0.242507l3.233425-7.679385 5.577658-2.869664-4.728884 10.023618 11.478659 2.465486-5.779747 2.950501-8.32607-2.061309h-0.242507l-3.51635 8.083563-5.618076 2.869665zM1250.405925 608.126436l-7.073118 3.637603L1248.910466 622.434342l-4.890556 2.465487-5.577658-10.54905-7.0327 3.556768-1.091281-2.101726 18.996373-9.700276zM1274.494942 606.590559l1.091281 2.101726-16.167126 8.083563-6.46685-12.610358 15.35877-7.881474 1.09128 2.101726-10.468213 5.335152 1.576294 3.112172 9.700276-4.971391 1.050863 1.980472-9.740693 4.971392 1.737966 3.475932zM1273.969511 593.454769l8.326069-4.24387c7.638967-4.041781 10.589467-3.839692 12.125345-0.848774s-0.687103 5.860583-7.760221 9.457768l-3.395096 1.737966 2.101726 4.041782-4.890555 2.505904z m11.114898 2.748412c4.041781-2.142144 5.294734-3.395096 4.365124-5.254316s-2.627158-1.576295-6.790192 0.525431l-2.78883 1.414624 2.425069 4.728884zM1079.600241 689.97251l-10.670303-3.071754 5.901001-2.546322 7.719802 2.546322h0.20209l3.758856-7.477296 5.73933-2.465486-5.375569 9.821529 11.316988 3.193007-5.981837 2.58674-8.083563-2.627158h-0.242507l-4.041781 8.083563-5.779748 2.505905zM1114.036219 670.086945l-7.315625 3.15259 4.728885 10.953228-5.052227 2.182561-4.728884-10.993645-7.234789 3.152589-0.92961-2.182561 19.60264-8.447324zM1138.165654 670.127363l0.92961 2.182562-16.530886 7.113535-5.658494-13.135789 15.843783-6.830611 0.92961 2.142144-10.791557 4.648049 1.374206 3.193007 10.023618-4.324706 0.889192 2.061309-10.023618 4.324706 1.535877 3.556767zM1138.488997 656.991573l8.568576-3.678021c7.881474-3.395096 10.872392-3.15259 12.125345 0s-1.091281 5.779747-8.366488 8.932337l-3.51635 1.495459 1.818802 4.041782-5.052227 2.182562z m10.912809 3.475932c4.324706-1.859219 5.537241-3.031336 4.688467-4.930973s-2.465487-1.778384-6.749775 0l-2.910083 1.252952 2.101727 4.850138zM952.041619 739.646004l-10.670303-3.031336 5.901001-2.546323 7.719802 2.546323h0.202089l3.758857-7.436878 5.73933-2.465487-5.37557 9.821529 11.27657 3.193008-5.981836 2.546322-8.083563-2.58674h-0.242507l-4.041781 7.881474-5.779748 2.465486zM986.477597 719.881693l-7.315625 3.112171 4.728884 10.993646-5.052226 2.142144-4.769302-10.953228-7.234789 3.112172-0.92961-2.182562 19.60264-8.406905zM1010.445361 719.92211l0.929609 2.142145-16.530886 7.113535-5.658494-13.095372 15.843783-6.830611 0.92961 2.142145-10.791556 4.648048 1.374205 3.193008 10.023618-4.324707 0.889192 2.061309-10.023618 4.324706 1.495459 3.556768zM1010.930374 706.786321l8.568577-3.678021c7.881474-3.395096 10.872392-3.15259 12.125344 0s-1.091281 5.820165-8.366487 8.932337l-3.51635 1.535877 1.818801 4.24387-5.052226 2.182562z m10.91281 3.435514c4.324706-1.859219 5.496823-3.031336 4.688467-4.930973s-2.505904-1.778384-6.790193 0l-2.869665 1.252952 2.061309 4.850138zM1498.126709 603.842147l-6.992282-8.649412 6.305179 1.29337 4.850138 6.507268h0.242507l7.356042-4.041781 6.10309 1.252952-10.023618 4.971391 7.39646 9.094009-6.345597-1.333788-5.213898-6.66894h-0.242506l-7.841056 4.041782-6.143508-1.29337zM1537.69575 607.318079l-7.760221-1.616712-2.425069 11.680748-5.375569-1.131699 2.425069-11.680748-7.719803-1.616712 0.485014-2.303816 20.855592 4.365124zM1557.460061 621.18139l-0.485014 2.344233-17.622167-3.678021 2.910083-13.984564 16.894646 3.51635-0.485014 2.303815-11.519077-2.425068-0.687103 3.395096 10.670303 2.22298-0.444596 2.182562-10.670303-2.22298-0.808356 3.799275zM1565.301117 610.63234l9.094008 1.899638c8.406905 1.737966 10.710721 3.637603 10.023618 6.951864s-4.041781 4.041781-12.125344 2.505904l-3.758857-0.767938-0.92961 4.526795-5.415987-1.131699z m6.911446 9.094009c4.607631 0.970028 6.264761 0.687103 6.66894-1.333788s-1.010445-2.910083-5.577659-3.839693l-3.071754-0.646685-1.091281 5.17348z" fill="#FFFFFF"/><path d="M1863.261245 616.856684c-43.934164 0-149.545913-16.773393-177.838384-66.729812a6.790193 6.790193 0 0 1-0.646685-1.576295c-0.242507-0.727521-5.335152-17.783838 4.526796-31.121717 6.951864-9.417351 18.996373-14.227071 35.769765-14.22707a104.48005 104.48005 0 0 1 11.882838 0.72752 230.826138 230.826138 0 0 0 25.261134 1.29337c47.450514 0 87.423733-13.539968 95.183953-23.240243 4.769302-5.941419 17.460496-19.683476 33.142608-19.683476 8.083563 0 19.360133 3.718439 27.241606 21.46186a8.083563 8.083563 0 0 1 0.687103 3.475932c-0.525432 20.936428-5.294734 125.618567-44.459596 129.337006-3.273843 0.161671-6.709357 0.282925-10.751138 0.282925z" fill="#016879"/><path d="M1890.502852 470.422942c7.356042 0 14.469578 4.526795 19.845147 16.65214 0 0-3.112172 118.222107-37.305643 121.253443-2.788829 0.242507-6.10309 0.36376-9.821529 0.36376-42.883301 0-144.897865-16.813811-170.644013-62.607194 0 0-10.751139-34.840156 32.576759-34.840156a99.346988 99.346988 0 0 1 10.953228 0.646685 246.023236 246.023236 0 0 0 26.109908 1.414623c47.127172 0 90.9805-13.13579 101.52955-26.271579 7.0327-8.851501 17.096735-16.65214 26.797011-16.65214m0-16.167126c-19.198462 0-33.991382 15.884201-39.447787 22.714812s-41.832438 20.208907-88.919192 20.208907a215.26528 215.26528 0 0 1-24.250689-1.29337 119.434642 119.434642 0 0 0-12.772029-0.72752c-19.481387 0-33.708457 5.860583-42.277034 17.460495-12.125344 16.167126-6.426432 36.093108-5.779747 38.316089a16.894646 16.894646 0 0 0 1.374205 3.152589C1692.010965 577.974746 1721.798894 597.011537 1766.945593 610.308998a375.319825 375.319825 0 0 0 96.315652 14.631249c4.041781 0 8.083563 0 11.27657-0.444596 30.272943-2.748411 40.741157-44.257507 45.955055-75.217553a492.814411 492.814411 0 0 0 6.062672-61.798838 16.167126 16.167126 0 0 0-1.374206-6.992282c-10.144871-22.836065-26.06949-26.231162-34.638066-26.231162z"/><path d="M466.421578 579.429788H392.012382c-80.06769 0-222.985082-18.632612-246.548668-32.334252a12.448687 12.448687 0 0 1-7.0327-10.670303c0-7.517713 6.790193-12.812447 12.125345-16.167126a8.083563 8.083563 0 0 1 4.041781-1.252952h3.314261a46.480487 46.480487 0 0 1 7.39646 0.525432c115.675785-16.530886 303.335697-46.561322 318.371124-57.191208a4.607631 4.607631 0 0 1 1.010446-0.727521 210.172635 210.172635 0 0 1 39.9328-17.298824 8.083563 8.083563 0 0 1 2.384651-0.36376 8.083563 8.083563 0 0 1 5.698912 2.344233c39.973218 39.609458 49.75433 42.15578 50.724357 42.317452a22.714812 22.714812 0 0 1 16.167126 12.125344c9.457769 16.813811 7.800638 47.814274 2.546322 60.950064-4.80972 12.125344-26.311997 17.783838-135.35926 17.783838z" fill="#24252A"/><path d="M526.724958 451.830747c20.936428 20.734339 45.30837 42.923719 55.089481 44.459596 18.67303 3.112172 18.67303 46.642158 12.448686 62.203017-4.44596 11.114899-64.425996 12.731612-127.841547 12.731611-25.382387 0-51.290206-0.282925-74.409196-0.282925-80.835629 0-220.883356-18.67303-242.506886-31.121717-5.820165-3.314261-2.546322-8.083563 5.375569-12.974118h2.910082a37.467314 37.467314 0 0 1 7.275207 0.646685s304.911992-43.570404 323.585022-59.131262a206.898792 206.898792 0 0 1 38.235253-16.571304m0-16.167126a16.167126 16.167126 0 0 0-4.769302 0.72752 221.893801 221.893801 0 0 0-41.630349 18.026346c-0.485014 0.323343-0.970028 0.606267-1.455041 0.970027-17.985927 9.376933-172.786157 35.567677-313.844329 55.776584a60.141708 60.141708 0 0 0-7.396461-0.444596h-3.678021a16.490468 16.490468 0 0 0-8.083563 2.505905c-4.041781 2.546322-16.167126 10.266125-15.843783 23.199825a20.653503 20.653503 0 0 0 11.27657 17.622167c16.813811 9.61944 73.075408 18.026345 105.086318 22.18938a1227.246517 1227.246517 0 0 0 145.504132 11.034064h74.409196c114.382415 0 136.005946-5.73933 142.836556-22.876483 6.143508-15.277934 8.083563-48.501377-2.990918-67.901928a30.394196 30.394196 0 0 0-21.219352-16.167126c-1.818802-0.767938-12.489105-6.143508-46.965501-40.417815a16.167126 16.167126 0 0 0-11.357406-4.688466z"/><path d="M761.714131 569.567841a138.026836 138.026836 0 0 1-32.334252-3.112172c-40.741157-10.185289-72.752066-82.411924-73.924183-85.483677a8.083563 8.083563 0 0 1 4.041782-10.508632l140.007309-68.42736a8.083563 8.083563 0 0 1 3.556768-0.848774 8.083563 8.083563 0 0 1 5.860583 2.546322c0.565849 0.565849 55.938255 59.010009 77.157608 77.198026 14.267488 12.125344 17.056318 24.816538 16.935064 33.223443a42.923719 42.923719 0 0 1-17.137154 32.334252c-15.399187 12.125344-82.088581 23.280661-123.840183 23.280661z" fill="#24252A"/><path d="M802.738212 409.270789s55.978673 59.131262 77.763875 77.804293 15.560859 40.417814 0 52.866501c-12.125344 9.821529-74.570868 21.542695-118.787956 21.542695a130.913301 130.913301 0 0 1-30.555868-2.869665c-37.346061-9.336515-68.42736-80.835629-68.42736-80.835629l140.007309-68.467777m0-16.167126a16.369215 16.369215 0 0 0-7.113535 1.65713l-140.007309 68.386942a16.167126 16.167126 0 0 0-7.719803 20.976846c3.51635 8.083563 35.527259 79.178498 79.34017 90.131726a146.231653 146.231653 0 0 0 34.476396 3.354679c38.84152 0 110.057709-10.023618 128.89241-25.059045a50.886028 50.886028 0 0 0 20.208907-38.316088c0-10.144871-3.112172-25.220716-19.764311-39.488205-20.89601-17.905092-75.985491-76.025909-76.551341-76.793847a16.167126 16.167126 0 0 0-11.721166-5.052227z"/><path d="M1020.388143 480.042382a82.452341 82.452341 0 0 1-10.225707-0.525432c-26.473668-3.314261-94.254343-75.25797-107.592222-89.646712a8.083563 8.083563 0 0 1 0-11.034063l108.885592-115.109936a8.083563 8.083563 0 0 1 5.860583-2.546322 8.083563 8.083563 0 0 1 4.80972 1.576295c1.172117 0.889192 118.383778 87.221644 145.90831 105.571331 11.438241 7.638967 23.240243 17.177571 23.84651 30.313361 0.687103 14.146235-11.236152 26.918264-29.424168 41.79202-33.829711 27.645785-110.461887 39.609458-142.109036 39.609458z" fill="#24252A"/><path d="M1017.397225 269.26348S1135.740585 356.404288 1163.628877 375.077318s28.009545 31.081299-6.224343 59.090845c-30.798375 25.220716-104.439632 37.790656-137.016391 37.790656a75.055881 75.055881 0 0 1-9.215262-0.444596c-24.897374-3.112172-102.661249-87.140808-102.661248-87.140808l108.885592-115.109935m0-16.167126a16.167126 16.167126 0 0 0-11.721167 5.052227l-108.926009 115.150353a16.167126 16.167126 0 0 0 0 22.068127c0.808356 0.889192 20.208907 21.623531 42.762047 43.166225 43.408733 41.145335 60.10129 47.814274 69.801566 49.026809a90.050891 90.050891 0 0 0 11.195734 0.56585c32.657594 0 111.87651-12.489105 147.282516-41.42826 20.208907-16.409633 33.223443-30.960046 32.334252-48.501377-0.808356-16.692557-14.307906-27.888292-27.443696-36.61854-27.36286-18.268852-144.412851-104.48005-145.504132-105.369242a16.409633 16.409633 0 0 0-9.61944-3.15259z"/><path d="M553.198626 509.264462a265.423787 265.423787 0 0 1-31.485477-1.697549c-14.671667-1.818802-27.201189-13.903728-38.275671-36.861046a8.083563 8.083563 0 0 1 3.395097-10.589468c8.972755-4.930973 39.771129-20.572668 67.538168-21.502277a89.161699 89.161699 0 0 0 9.296097-6.992282 8.083563 8.083563 0 0 1 2.707993-1.818801c4.041781-1.576295 401.712658-161.26708 469.331662-239.879729l27.645785-46.116726a162.237107 162.237107 0 0 1 75.945073-61.596749 7.841056 7.841056 0 0 1 2.869665-0.525432 8.083563 8.083563 0 0 1 6.507268 12.893283l-76.308834 102.418741 9.094008 112.0786a8.083563 8.083563 0 0 1-4.324706 7.841056c-33.425533 17.217989-200.957373 103.348351-216.801156 106.500941-14.42916 2.910083-132.004582 52.543159-149.545914 64.143071-9.215262 6.143508-27.201189 9.134426-55.049063 9.134426-14.388742 0-27.36286-0.808356-33.506368-1.252952-13.701639 11.27657-44.459596 13.782475-68.993209 13.782475z" fill="#57D4EA"/><path d="M1142.167018 89.727548l-78.087218 105.086318 9.336515 115.109935S874.277744 412.261707 858.716885 415.495132s-133.782966 52.906919-152.455996 65.355606c-9.336515 6.224343-31.081299 7.76022-50.562686 7.760221s-36.376033-1.535877-36.376033-1.535877c-8.608994 10.751139-39.488205 14.065399-65.961873 14.065399a269.020973 269.020973 0 0 1-30.51545-1.616713c-14.42916-1.818802-24.695285-17.298825-31.970491-32.334251 8.447323-4.607631 39.609458-20.53225 66.20438-20.53225a124.08269 124.08269 0 0 0 12.448687-9.336515s404.501487-161.671258 472.888429-242.506886l28.009545-46.682576a155.16399 155.16399 0 0 1 71.862874-58.201653m0-16.167126h-1.737966a16.45005 16.45005 0 0 0-4.405542 1.131699 171.129026 171.129026 0 0 0-79.582676 64.668503l-27.403278 45.550877c-19.360133 22.108544-79.663512 65.476859-255.642677 146.312488-108.036818 49.794747-209.121772 90.333815-210.172635 90.737994a16.167126 16.167126 0 0 0-5.456405 3.556767 70.892846 70.892846 0 0 1-6.264761 4.769302c-27.92871 1.65713-57.029536 15.965037-68.710284 22.351052a16.167126 16.167126 0 0 0-6.790193 21.219352c4.526795 9.417351 18.390106 38.113999 44.459596 41.387842a282.924701 282.924701 0 0 0 32.334251 1.737966c34.0318 0 57.959146-4.567213 71.337443-13.620803 6.992282 0.485014 18.551777 1.091281 31.162135 1.091281 39.245698 0 52.785666-5.981837 59.53544-10.468214 16.975482-11.316988 132.327924-59.980037 146.676249-62.970955 16.167126-3.193007 158.437833-76.066327 218.902883-107.268879a16.167126 16.167126 0 0 0 8.730248-15.641695l-8.851502-109.128099 74.207108-99.67033a16.167126 16.167126 0 0 0 3.475932-9.9832 16.167126 16.167126 0 0 0-15.601277-16.167126z m0 32.334252z"/><path d="M1176.077564 315.946055m-10.266125 0a10.266125 10.266125 0 1 0 20.53225 0 10.266125 10.266125 0 1 0-20.53225 0Z" fill="#FFFFFF"/><path d="M1176.1584 309.721712a6.224343 6.224343 0 1 1-6.224344 6.224343 6.224343 6.224343 0 0 1 6.224344-6.224343m0-8.083563a14.307906 14.307906 0 1 0 14.307906 14.307906 14.348324 14.348324 0 0 0-14.307906-14.307906z"/><path d="M1219.647968 357.333897a10.266125 10.266125 0 1 1 10.266125-10.266125 10.266125 10.266125 0 0 1-10.266125 10.266125z" fill="#FFFFFF"/><path d="M1219.647968 340.843429a6.224343 6.224343 0 1 1-6.224343 6.224343 6.224343 6.224343 0 0 1 6.224343-6.224343m0-8.083563a14.307906 14.307906 0 1 0 14.307906 14.307906 14.348324 14.348324 0 0 0-14.307906-14.307906z"/><path d="M1260.1062 378.18949m-10.266125 0a10.266125 10.266125 0 1 0 20.53225 0 10.266125 10.266125 0 1 0-20.53225 0Z" fill="#FFFFFF"/><path d="M1260.1062 371.843893a6.224343 6.224343 0 1 1-6.224343 6.224343 6.183926 6.183926 0 0 1 6.224343-6.224343m0-8.083563a14.307906 14.307906 0 1 0 14.307906 14.307906 14.267488 14.267488 0 0 0-14.307906-14.307906z"/><path d="M1044.840921 322.291652c-22.75523 0-62.849701-8.68983-75.783402-66.810647a8.083563 8.083563 0 0 1 3.758856-8.68983c5.779747-3.475932 142.230289-84.87741 190.287071-88.272507 3.112172 0 6.224343-0.282925 9.255679-0.282925 41.711184 0 76.591758 19.440969 106.662612 59.535441a8.083563 8.083563 0 0 1 1.333788 6.871029 8.083563 8.083563 0 0 1-4.567213 5.375569l-199.138571 87.10039-0.485014 0.202089a101.044536 101.044536 0 0 1-31.323806 4.971391z" fill="#494A4E"/><path d="M1172.359125 166.319306c42.236616 0 73.9646 21.300188 100.195762 56.302016l-199.138572 87.10039a92.960973 92.960973 0 0 1-28.575394 4.486377c-24.250689 0-56.58494-10.104454-67.861511-60.626721 0 0 140.007309-83.988218 186.649467-87.10039 2.9505 0 5.860583-0.282925 8.730248-0.282925m0-16.167126c-3.233425 0-6.507268 0-9.781111 0.323343-49.148062 3.273843-179.253007 80.593122-194.005509 89.363787a16.167126 16.167126 0 0 0-7.477296 17.379661c14.146235 63.658058 58.484577 73.156244 83.664876 73.156244a107.309297 107.309297 0 0 0 34.0318-5.456405l1.010445-0.404178 199.138572-87.100391a16.167126 16.167126 0 0 0 6.46685-24.493195c-31.687567-42.236616-68.710285-62.768866-113.16988-62.768866z"/><path d="M904.712358 399.530096a30.636703 30.636703 0 0 1-20.208907-5.820166c-9.9832-8.32607-25.059045-33.829711-44.742521-75.783402a8.083563 8.083563 0 0 1 3.758857-10.710721c25.059045-12.125344 48.218453-24.008182 68.710284-35.042245a7.800638 7.800638 0 0 1 3.799275-0.970027 8.083563 8.083563 0 0 1 2.910083 0.565849 8.083563 8.083563 0 0 1 4.688466 4.80972c9.740693 27.484114 20.815174 45.470041 30.353779 49.350151a116.767066 116.767066 0 0 0 27.524531 6.426433c12.691194 1.859219 24.695285 3.597185 25.584477 14.550413a8.083563 8.083563 0 0 1-4.405542 8.083563c-34.961409 17.743421-64.183489 32.334252-86.777047 43.408733a8.285652 8.285652 0 0 1-2.586741 0.767938 79.663512 79.663512 0 0 1-8.932337 0.56585z" fill="#494A4E"/><path d="M916.352689 279.287098c7.39646 20.855592 19.60264 47.89511 34.920991 54.159871 21.785202 8.891919 47.410096 5.779747 48.097199 14.105817-28.29247 14.42916-60.384215 30.475032-86.696212 43.368315a61.637167 61.637167 0 0 1-8.083562 0.525432 23.11899 23.11899 0 0 1-14.873756-4.041782c-11.478659-9.538604-30.030436-46.197562-42.600377-72.994573 23.846511-11.640331 47.208007-23.48275 69.114463-35.203916m0-16.167126a16.45005 16.45005 0 0 0-7.638967 1.899638c-20.53225 10.993646-43.610822 22.75523-68.710284 34.961409a16.167126 16.167126 0 0 0-7.275207 21.461859c30.434614 64.668503 42.398287 74.813374 46.884665 78.572232a38.518177 38.518177 0 0 0 25.220716 7.679384 78.653067 78.653067 0 0 0 9.902365-0.646685 16.167126 16.167126 0 0 0 5.17348-1.495459c22.75523-11.155317 51.977309-25.786566 86.898301-43.489568a16.167126 16.167126 0 0 0 8.770665-15.72253c-1.374206-17.37966-19.319715-20.208907-32.334251-21.906455a111.431914 111.431914 0 0 1-25.624894-5.901001c-4.324706-1.778384-14.631249-13.13579-25.786566-44.459596a16.167126 16.167126 0 0 0-9.417351-9.659858 16.167126 16.167126 0 0 0-5.820165-1.091281z"/><path d="M808.962556 472.12049a76.793847 76.793847 0 0 1-17.379661-2.061308c-43.247061-9.9832-69.316552-51.653967-70.407832-53.432351a6.264761 6.264761 0 0 1-0.485014-0.889192l-15.560859-34.233889a8.083563 8.083563 0 0 1 4.041782-10.791556L784.1056 339.509641a8.083563 8.083563 0 0 1 3.112171-0.606267 8.083563 8.083563 0 0 1 7.841056 6.224343c5.698912 24.250689 16.167126 48.501377 21.744785 49.916001 2.061309 0.404178 4.324706 0.848774 6.749775 1.252952 19.279297 3.475932 43.287479 7.841056 43.287479 25.34197-0.040418 24.41236-23.280661 50.48185-57.87831 50.48185z" fill="#494A4E"/><path d="M787.177354 347.067772s12.448687 52.866501 28.009545 55.978673 43.529986 6.224343 43.529986 18.673031c0 18.834702-18.592195 42.317452-49.754329 42.317451a69.963237 69.963237 0 0 1-15.560859-1.859219C752.943465 452.679522 728.046091 412.261707 728.046091 412.261707l-15.560858-34.193471 74.692121-31.121717m0-16.167126a16.409633 16.409633 0 0 0-6.224344 1.212535l-74.692121 31.121717a16.167126 16.167126 0 0 0-8.487741 21.62353l15.560859 34.233889c0.282925 0.606267 0.606267 1.212534 0.929609 1.778384 1.172117 1.899637 28.979573 46.318815 75.500478 57.069954a86.049527 86.049527 0 0 0 19.198462 2.263398c39.447787 0 65.921455-30.232525 65.921455-58.484578 0-24.250689-30.070854-29.707094-49.956419-33.304279l-4.80972-0.848774c-4.80972-5.092645-12.772029-25.422805-17.217989-44.217089a16.167126 16.167126 0 0 0-8.366487-10.670303 15.803365 15.803365 0 0 0-7.356042-1.778384z"/><path d="M615.644149 498.311234a7.477296 7.477296 0 0 1-2.263397-0.323343c-7.719803-2.22298-12.529522-6.10309-14.348324-11.478659-1.495459-4.486377-3.718439-10.589467-6.183926-17.37966-4.405542-12.125344-9.417351-26.029072-12.731612-37.063136a8.083563 8.083563 0 0 1 4.688467-9.781111c10.306543-4.041781 24.493196-10.064036 41.549513-17.258407a8.568577 8.568577 0 0 1 3.15259-0.606267 9.457769 9.457769 0 0 1 1.535877 0 8.32607 8.32607 0 0 1 3.637603-3.031336c10.306543-4.324706 21.502277-9.094008 33.425532-14.227071a8.083563 8.083563 0 0 1 3.193008-0.646685 8.083563 8.083563 0 0 1 4.648048 1.455042 8.083563 8.083563 0 0 1 3.395097 7.073117c-0.646685 11.195735 3.799275 35.891019 6.871028 41.670767l2.22298 1.010445c15.358769 6.830611 43.974582 19.60264 38.760684 37.992746a8.083563 8.083563 0 0 1-4.041781 5.052227 126.022745 126.022745 0 0 0-12.125345 6.668939 36.820629 36.820629 0 0 1-9.700275 4.405542l-5.618076 1.455041a194.005509 194.005509 0 0 1-39.77113 3.273843c-14.348324 0-27.322443-0.808356-33.46595-1.29337l-1.85922 1.455041a8.083563 8.083563 0 0 1-4.971391 1.576295z" fill="#494A4E"/><path d="M671.29948 394.720376c-0.767938 12.650776 4.648049 46.076308 10.064035 48.784302 6.224343 3.112172 41.872856 16.732975 38.033164 30.151689a137.420569 137.420569 0 0 0-13.13579 7.194371 30.677121 30.677121 0 0 1-7.638967 3.395097l-5.133062 1.333787a189.963728 189.963728 0 0 1-37.831074 3.031337c-19.440969 0-36.376033-1.535877-36.376033-1.535877a16.813811 16.813811 0 0 1-3.51635 3.152589c-4.769302-1.374206-8.083563-3.435514-8.932337-6.264761-4.041781-12.408269-13.742057-37.143971-18.834702-54.200289 10.306543-4.041781 24.533613-10.104454 41.630349-17.258407 0.970028 2.303815 2.101726 4.041781 3.435514 4.041781a2.425069 2.425069 0 0 0 1.778384-0.889192 13.459132 13.459132 0 0 0 3.112172-6.507268c10.34696-4.365124 21.542695-9.174844 33.46595-14.267488m0-16.167126H670.935719a15.277934 15.277934 0 0 0-6.224343 1.455041c-11.761584 5.052227-22.836065 9.740693-33.061772 14.0654a17.37966 17.37966 0 0 0-4.041782 2.344233 17.056318 17.056318 0 0 0-4.365124 1.172117c-17.985927 7.558131-32.334252 13.539968-41.509095 17.217989a16.167126 16.167126 0 0 0-9.336515 19.60264c3.354679 11.236152 8.406905 25.180298 12.852865 37.467314 2.425069 6.628522 4.688466 12.852865 6.10309 17.177571 1.859219 5.537241 6.790193 12.933701 19.804729 16.692557a15.439605 15.439605 0 0 0 4.486377 0.646685 16.167126 16.167126 0 0 0 8.972755-2.707993c6.992282 0.485014 18.511359 1.091281 31.040882 1.091281a201.806147 201.806147 0 0 0 41.307006-3.395097h0.36376l5.658494-1.495459h0.444596a45.793384 45.793384 0 0 0 11.963673-5.73933 113.776148 113.776148 0 0 1 11.397824-6.183925 16.167126 16.167126 0 0 0 8.32607-10.064036c7.0327-24.735702-25.826983-39.811547-42.438705-47.248425a140.088145 140.088145 0 0 1-5.254316-34.718903v-1.414623a16.167126 16.167126 0 0 0-16.167126-16.167126z m0 32.334252zM83.018191 767.655549c0-1.091281 13.944146-0.202089 38.679848 2.546323s60.626722 7.39646 104.560886 14.024981c22.027709 3.314261 46.116726 7.113535 71.984128 11.438242l9.740693 1.616712c3.233425 0.565849 6.749775 1.091281 10.468214 2.101727a34.233889 34.233889 0 0 1 11.599913 5.133062 25.463223 25.463223 0 0 1 8.608994 11.034063 103.065427 103.065427 0 0 1 3.556768 10.710721 24.735702 24.735702 0 0 0 1.535877 4.041782l0.889192 1.697548c0.323343 0.525432 0.767938 1.010445 1.131698 1.535877a24.250689 24.250689 0 0 0 13.944146 8.608994 27.524532 27.524532 0 0 0 16.975482-1.455041 17.94551 17.94551 0 0 0 6.507269-4.728884c1.818802-1.778384 3.597185-5.294734 6.790192-9.094009a23.199825 23.199825 0 0 1 6.66894-5.496822 20.491832 20.491832 0 0 1 8.891919-2.303816 51.007282 51.007282 0 0 1 7.073117 0.404178l5.820166 0.687103a1022.320114 1022.320114 0 0 0 121.657621 6.709357c16.854229 0 33.506368-0.606267 49.875583-1.455041 4.041781 0 7.841056-0.565849 12.893283-0.565849a31.162135 31.162135 0 0 1 8.083563 1.131698 24.695285 24.695285 0 0 1 7.841056 4.041782 36.376033 36.376033 0 0 0 8.528159 5.820165 26.029072 26.029072 0 0 0 8.891919 1.899637 44.459596 44.459596 0 0 0 19.481386-4.284288 172.826574 172.826574 0 0 0 19.360133-11.034063 140.977337 140.977337 0 0 1 21.138517-11.397824 151.243462 151.243462 0 0 1 22.351052-7.234789c14.914174-3.556768 29.181662-5.496823 43.044972-7.558131s27.403278-3.637603 40.417815-4.971391c26.231162-2.667576 50.603104-4.041781 73.075408-4.80972a182.728939 182.728939 0 0 1 32.617176 1.778384 103.510023 103.510023 0 0 1 14.954592 3.556767 81.643985 81.643985 0 0 1 13.378296 5.860584 59.454605 59.454605 0 0 1 19.521805 17.541331 62.849701 62.849701 0 0 1 9.094008 19.885565 57.029536 57.029536 0 0 1 0 29.545422c-1.940055 6.507268-4.041781 9.417351-4.44596 9.215262s0.444596-3.556768 1.252952-9.861947a60.909646 60.909646 0 0 0-2.829247-27.120353 53.432351 53.432351 0 0 0-26.837428-31.242971c-14.712084-7.598549-34.476396-9.013173-56.22118-7.719803s-46.23798 3.475932-72.024546 6.709358q-19.319715 2.425069-39.892382 5.698911c-13.620803 2.263398-27.807456 4.44596-41.468678 8.083563a118.505032 118.505032 0 0 0-38.962773 17.217989 174.968719 174.968719 0 0 1-21.057681 12.125345 59.090845 59.090845 0 0 1-26.554504 5.860583 40.86241 40.86241 0 0 1-14.590831-3.071754 39.932801 39.932801 0 0 1-6.790193-3.799275c-2.101726-1.495459-3.637603-2.869665-4.890556-3"/></svg>