<?xml version="1.0" ?><svg style="enable-background:new 0 0 531.116 685.309;" version="1.1" viewBox="0 0 531.116 685.309" xml:space="preserve" xmlns="http://www.w3.org/2000/svg" xmlns:xlink="http://www.w3.org/1999/xlink"><g id="_x33_-Scarf"><g><path d="M292.634,196.419l-223.952-0.005c-5.678,0-11.126,2.259-15.142,6.274    c-4.015,4.015-6.274,9.464-6.274,15.142v446.058c0,11.827,9.589,21.416,21.416,21.416l223.952,0.005    c5.678,0,11.126-2.259,15.142-6.274c4.015-4.016,6.274-9.464,6.274-15.142V217.835    C314.049,206.008,304.46,196.419,292.634,196.419z" style="fill:#D40000;"/><path d="M292.634,196.419l-223.952-0.005c-0.003,0-0.005,0-0.005,0l182.302,0.005    c11.827,0,21.416,9.589,21.416,21.416v446.058c0,5.678-2.259,11.126-6.274,15.142c-4.013,4.015-9.458,6.269-15.131,6.274h41.645    c5.678,0,11.126-2.259,15.142-6.274c4.015-4.016,6.274-9.464,6.274-15.142V217.835    C314.049,206.008,304.46,196.419,292.634,196.419z" style="fill:#B61C1C;"/><path d="M509.7,0.01L21.416,0C15.738,0,10.29,2.259,6.274,6.274S0,15.738,0,21.416v196.414    c0,11.827,9.589,21.416,21.416,21.416l488.284,0.01c5.678,0,11.126-2.253,15.142-6.274c4.016-4.015,6.274-9.464,6.274-15.142    V21.426C531.116,9.6,521.526,0.01,509.7,0.01z" style="fill:#F34336;"/><path d="M509.7,0.01L21.416,0c-0.003,0-0.008,0-0.008,0L462.28,0.01c11.827,0,21.416,9.589,21.416,21.416    V217.84c0,5.678-2.259,11.126-6.274,15.142c-4.013,4.015-9.456,6.269-15.131,6.274H509.7c5.678,0,11.126-2.253,15.142-6.274    c4.016-4.015,6.274-9.464,6.274-15.142V21.426C531.116,9.6,521.526,0.01,509.7,0.01z" style="fill:#EA2824;"/><g><g><path d="M111.058,685.306V571.913c0-8.871,7.189-16.062,16.062-16.062s16.062,7.19,16.062,16.062v113.393      H111.058z" style="fill:#F34336;"/></g><g><path d="M218.138,685.309V571.916c0-8.871,7.189-16.062,16.062-16.062s16.062,7.19,16.062,16.062v113.393      H218.138z" style="fill:#F34336;"/></g></g><g><path d="M156.306,81.502c-6.274-6.274-16.438-6.274-22.713,0L118.18,96.915l-15.414-15.414     c-6.274-6.274-16.438-6.274-22.713,0s-6.274,16.444,0,22.713l15.414,15.414l-15.414,15.414c-6.274,6.274-6.274,16.438,0,22.713     c3.137,3.137,7.247,4.706,11.356,4.706s8.219-1.569,11.356-4.706l15.414-15.414l15.414,15.414     c3.137,3.137,7.247,4.706,11.356,4.706c4.11,0,8.219-1.569,11.356-4.706c6.274-6.274,6.274-16.438,0-22.713l-15.414-15.414     l15.414-15.414C162.58,97.945,162.58,87.776,156.306,81.502z" style="fill:#D40000;"/><path d="M287.693,119.628l15.408-15.414c6.274-6.269,6.274-16.438,0-22.713s-16.438-6.274-22.713,0     l-15.411,15.414l-15.411-15.414c-6.274-6.274-16.438-6.274-22.713,0c-6.274,6.274-6.274,16.444,0,22.713l15.411,15.414     l-15.411,15.414c-6.274,6.274-6.274,16.444,0,22.713c3.137,3.137,7.247,4.706,11.356,4.706s8.219-1.569,11.356-4.706     l15.414-15.414l15.414,15.414c3.137,3.137,7.247,4.706,11.356,4.706c4.11,0,8.219-1.569,11.356-4.706     c6.274-6.274,6.274-16.438,0-22.713L287.693,119.628z" style="fill:#D40000;"/><path d="M434.488,119.628l15.414-15.414c6.274-6.269,6.274-16.438,0-22.713s-16.438-6.274-22.713,0     l-15.414,15.414l-15.414-15.414c-6.274-6.274-16.438-6.274-22.713,0c-6.274,6.274-6.274,16.444,0,22.713l15.414,15.414     l-15.414,15.414c-6.274,6.274-6.274,16.438,0,22.713c3.137,3.137,7.247,4.706,11.356,4.706c4.11,0,8.219-1.569,11.356-4.706     l15.414-15.414l15.414,15.414c3.137,3.137,7.247,4.706,11.356,4.706c4.11,0,8.219-1.569,11.356-4.706     c6.274-6.274,6.274-16.438,0-22.713L434.488,119.628z" style="fill:#D40000;"/></g></g></g><g id="Layer_1"/></svg>