<?xml version="1.0" ?><svg viewBox="0 0 32 32" xmlns="http://www.w3.org/2000/svg"><defs><style>.cls-1{fill:#64dd17;}.cls-2{fill:#76ff03;}.cls-3{fill:#b2ff59;}</style></defs><title/><g data-name="Layer 3" id="Layer_3"><path class="cls-1" d="M11.45,6.68A5.48,5.48,0,0,0,9,11.24a5.57,5.57,0,0,0,1.3,3.56,5.46,5.46,0,0,0-.5,6.42,4.68,4.68,0,0,0,4.26,2.44,2.5,2.5,0,0,0,2.44,2h0V3A5.32,5.32,0,0,0,11.45,6.68Z"/><path class="cls-2" d="M24,11.24a5.48,5.48,0,0,0-2.45-4.56A5.32,5.32,0,0,0,16.5,3V25.62a2.81,2.81,0,0,0,1.18-.27,2.57,2.57,0,0,0,1.25-1.7,4.7,4.7,0,0,0,4.27-2.43,5.46,5.46,0,0,0-.5-6.42A5.57,5.57,0,0,0,24,11.24Z"/><path class="cls-3" d="M21.22,11.06a.5.5,0,0,0,.5-.5.5.5,0,0,0-.5-.5A5.4,5.4,0,0,0,17,12V7.5a.5.5,0,0,0-1,0V12a5.4,5.4,0,0,0-4.22-1.95.5.5,0,0,0-.5.5.5.5,0,0,0,.5.5A4.67,4.67,0,0,1,16,13.82V19.7a4.63,4.63,0,0,0-3.81-1.92.5.5,0,1,0,0,1,4.11,4.11,0,0,1,3.81,3V28.5a.5.5,0,0,0,1,0V21.76a4.15,4.15,0,0,1,3.81-3,.5.5,0,1,0,0-1A4.63,4.63,0,0,0,17,19.7V13.82A4.72,4.72,0,0,1,21.22,11.06Z"/></g></svg>