<?xml version="1.0" ?><svg viewBox="0 0 64 64" xmlns="http://www.w3.org/2000/svg"><g data-name="Layer 3" id="Layer_3"><circle cx="23" cy="39" r="20" style="fill:#f2a7b1"/><path d="M25,57A19.98,19.98,0,0,1,9.906,23.906,19.984,19.984,0,1,0,38.094,52.094,19.9,19.9,0,0,1,25,57Z" style="fill:#e8859b"/><path d="M43,55H3a9.132,9.132,0,0,0,9.062,8H33.938A9.132,9.132,0,0,0,43,55Z" style="fill:#f2a7b1"/><path d="M36.938,60H15.062a9.13,9.13,0,0,1-8.138-5H3a9.132,9.132,0,0,0,9.062,8H33.938a9.125,9.125,0,0,0,7.769-4.345A9.1,9.1,0,0,1,36.938,60Z" style="fill:#e8859b"/><circle cx="23" cy="39" r="16" style="fill:#98deea"/><path d="M21.356,25A15.992,15.992,0,0,1,34.518,50.089,15.992,15.992,0,1,0,9.839,29.912,15.94,15.94,0,0,1,21.356,25Z" style="fill:#82d0d8"/><path d="M58,35H52V23.141a4,4,0,0,1,1.781-3.328L58,17Z" style="fill:#f97878"/><path d="M56.781,19.812,58,19V17l-4.219,2.812A4,4,0,0,0,52,23.141V35h3V23.141A4,4,0,0,1,56.781,19.812Z" style="fill:#ed5d5d"/><path d="M60,39H50V34.4a1,1,0,0,1,1.287-.951,12.78,12.78,0,0,0,7.426,0A1,1,0,0,1,60,34.4Z" style="fill:#f2a7b1"/><path d="M53.163,33.864a13.6,13.6,0,0,1-1.876-.415A1,1,0,0,0,50,34.4V39h3V34.4A.983.983,0,0,1,53.163,33.864Z" style="fill:#e8859b"/><path d="M59.485,62.441a18.28,18.28,0,0,1-8.97,0A2.006,2.006,0,0,1,49,60.494V37a18.5,18.5,0,0,0,12,0V60.494A2.006,2.006,0,0,1,59.485,62.441Z" style="fill:#f97878"/><path d="M53.515,59.441A2.006,2.006,0,0,1,52,57.494V37.75A19.821,19.821,0,0,1,49,37V60.494a2.006,2.006,0,0,0,1.515,1.947,18.28,18.28,0,0,0,8.97,0A2.006,2.006,0,0,0,61,60.494v-.752A18.229,18.229,0,0,1,53.515,59.441Z" style="fill:#ed5d5d"/><path d="M37.674,13.415c-.237.17-.46.354-.677.545a8.586,8.586,0,0,0-.681-.558,2.135,2.135,0,0,0-2.712.18,1.925,1.925,0,0,0-.183,2.6A10.51,10.51,0,0,0,36.994,19a11.16,11.16,0,0,0,3.586-2.814,1.916,1.916,0,0,0-.188-2.6A2.144,2.144,0,0,0,37.674,13.415Z" style="fill:#f97878"/><path d="M37.674,1.415c-.237.17-.46.354-.677.545a8.586,8.586,0,0,0-.681-.558,2.135,2.135,0,0,0-2.712.18,1.925,1.925,0,0,0-.183,2.6A10.51,10.51,0,0,0,36.994,7,11.16,11.16,0,0,0,40.58,4.186a1.916,1.916,0,0,0-.188-2.6A2.144,2.144,0,0,0,37.674,1.415Z" style="fill:#f97878"/><path d="M27.674,7.415c-.237.17-.46.354-.677.545a8.586,8.586,0,0,0-.681-.558,2.135,2.135,0,0,0-2.712.18,1.925,1.925,0,0,0-.183,2.6A10.51,10.51,0,0,0,26.994,13a11.16,11.16,0,0,0,3.586-2.814,1.916,1.916,0,0,0-.188-2.6A2.144,2.144,0,0,0,27.674,7.415Z" style="fill:#f97878"/><path d="M25.43,10.184a1.931,1.931,0,0,1,.184-2.611,2.032,2.032,0,0,1,.469-.328,2.141,2.141,0,0,0-2.476.328,1.93,1.93,0,0,0-.184,2.611,10.532,10.532,0,0,0,3.586,2.827c.345-.182.674-.374.991-.573A9.856,9.856,0,0,1,25.43,10.184Z" style="fill:#ed5d5d"/><path d="M35.43,16.184a1.931,1.931,0,0,1,.184-2.611,2.032,2.032,0,0,1,.469-.328,2.141,2.141,0,0,0-2.476.328,1.93,1.93,0,0,0-.184,2.611,10.532,10.532,0,0,0,3.586,2.827c.345-.182.674-.374.991-.573A9.856,9.856,0,0,1,35.43,16.184Z" style="fill:#ed5d5d"/><path d="M35.43,4.184a1.931,1.931,0,0,1,.184-2.611,2.032,2.032,0,0,1,.469-.328,2.141,2.141,0,0,0-2.476.328,1.93,1.93,0,0,0-.184,2.611,10.532,10.532,0,0,0,3.586,2.827c.345-.182.674-.374.991-.573A9.856,9.856,0,0,1,35.43,4.184Z" style="fill:#ed5d5d"/></g></svg>