<?xml version="1.0" ?><svg viewBox="0 0 64 64" xmlns="http://www.w3.org/2000/svg"><title/><g data-name="Day 22" id="e53f930d-d9d4-4aaa-b1ea-f0e47086050e"><rect data-name="&lt;Rectangle&gt;" fill="#526778" height="9" id="b5f700cd-761a-42f8-afa9-9478117bc952" stroke="#001c63" stroke-linecap="round" stroke-linejoin="round" stroke-width="2" width="11" x="7" y="50"/><rect data-name="&lt;Rectangle&gt;" fill="#526778" height="9" id="1dccc0b7-8b65-47e3-ac4e-f16530d19f3b" stroke="#001c63" stroke-linecap="round" stroke-linejoin="round" stroke-width="2" width="11" x="46" y="50"/><path d="M59.8,32.44l-2.14,1.82,1.77,3.53,0,.78L59.56,44l.07,3.09a5.06,5.06,0,0,1-4.43,5.13L49.07,53l-9,1.13a68.06,68.06,0,0,1-17.23,0l-7.89-1-6.13-.8a5.06,5.06,0,0,1-4.41-5.12L4.44,44l.11-5.43,0-.78,1.77-3.53L4.2,32.44a3,3,0,0,1-1.06-2.29,3,3,0,0,1,3.39-3l2.17.29,0-.07.06-.13.4.2a64.53,64.53,0,0,1,9-1.72,117.44,117.44,0,0,1,15.13-.93,86.51,86.51,0,0,1,19.87,1.93c.55.13,1,.25,1.37.36l.59.17.09.19.37,0,1.8-.24a2.48,2.48,0,0,1,.38,0,3,3,0,0,1,2,5.28Z" data-name="&lt;Path&gt;" fill="#f24949" id="68515ba4-9501-4c27-85fa-004b4cf92fd3"/><path d="M55.21,27.28c-2-.62-9-2.46-21.83-2.46C18,24.82,9.2,27.47,9.2,27.47l-.4-.2L14.3,16l4.88-.59,5.6-.67a56.64,56.64,0,0,1,13.27,0L49.7,16l3.08,6.32Z" data-name="&lt;Path&gt;" fill="#9cd7ff" id="53eb9597-4815-4362-a819-f7fc3d9e2b1b"/><path d="M52.78,22.29a105.71,105.71,0,0,0-13.2-.76,114.79,114.79,0,0,0-17,1.19,4,4,0,0,1-4.23-5.46l.81-1.88,5.6-.67a56.64,56.64,0,0,1,13.27,0L49.7,16Z" data-name="&lt;Path&gt;" fill="#c0e6ff" id="177834d7-6d00-44e7-97a0-06c08ff54745"/><path d="M54.62,27.11c-2.07,3-5.41,6.6-9.63,6.89-7.32.5-29,0-29,0L8.74,27.4l.06-.13.4.2a64.53,64.53,0,0,1,9-1.72l1.22,1.71A8.44,8.44,0,0,0,26.35,31H46l7-4,.25-.25C53.8,26.88,54.25,27,54.62,27.11Z" data-name="&lt;Path&gt;" fill="#cf3e3e" id="44ad3e1b-fd1d-415d-bf81-cd31a3358b64"/><g data-name="&lt;Group&gt;" id="9827b00f-96d3-407d-b080-a3cae8f09f34"><path d="M9.2,27.47s8.85-2.65,24.18-2.65c12.8,0,19.85,1.84,21.83,2.46l.46.14.13,0" data-name="&lt;Path&gt;" fill="none" id="7c9bf11d-6948-4e1e-8f73-b4f87cff3a04" stroke="#001c63" stroke-linecap="round" stroke-linejoin="round" stroke-width="2"/><path d="M55.67,27.42l1.8-.24a2.48,2.48,0,0,1,.38,0,3,3,0,0,1,1.95,5.28l-2.14,1.82,1.77,3.53,0,.78L59.56,44l.07,3.09a5.06,5.06,0,0,1-4.43,5.13L49.07,53l-9,1.13a68.05,68.05,0,0,1-17.23,0l-7.89-1-6.13-.8a5.06,5.06,0,0,1-4.41-5.12L4.44,44l.11-5.43,0-.78,1.77-3.53L4.2,32.44a3,3,0,0,1-1.06-2.29,3,3,0,0,1,3.39-3l2.17.29.1-.2L14.3,16l10.48-1.26a56.63,56.63,0,0,1,13.27-.05L49.7,16l5.51,11.31.09.19Z" data-name="&lt;Path&gt;" fill="none" id="6e8550a4-114d-411a-aa11-1fed9aac6103" stroke="#001c63" stroke-linecap="round" stroke-linejoin="round" stroke-width="2"/></g><path d="M9,27l4.66,4.66A8,8,0,0,0,19.31,34H45a8,8,0,0,0,5.27-2L56,27" data-name="&lt;Path&gt;" fill="none" id="48a088e9-1973-49d9-b83b-a0ca740a2b09" stroke="#001c63" stroke-linecap="round" stroke-linejoin="round" stroke-width="2"/><path d="M49.07,53l-9,1.13a68.06,68.06,0,0,1-17.23,0l-7.89-1,1-2.87.67-1.88A7.1,7.1,0,0,1,23.47,43H40.53a7.1,7.1,0,0,1,6.87,5.29L48,50.12Z" data-name="&lt;Path&gt;" fill="#9c2f2f" id="5ef12dc0-4d84-4b48-8271-9938d795abed"/><path d="M48,50.12l-8,1a68.06,68.06,0,0,1-17.23,0l-6.87-.9.67-1.88a5.83,5.83,0,0,1,.35-1A7.09,7.09,0,0,1,23.47,43H40.53a7.16,7.16,0,0,1,6.87,5.29Z" data-name="&lt;Path&gt;" fill="#ba3838" id="f1c98a2c-7364-4bea-ae50-606839454d29"/><path d="M49.07,53l-9,1.13a68.06,68.06,0,0,1-17.23,0l-7.89-1,1.69-4.75A7.1,7.1,0,0,1,23.47,43H40.53a7.1,7.1,0,0,1,6.87,5.29Z" data-name="&lt;Path&gt;" fill="none" id="324c44de-ee6a-48f2-9e5d-71109ab11178" stroke="#001c63" stroke-linecap="round" stroke-linejoin="round" stroke-width="2"/><polygon data-name="&lt;Path&gt;" fill="#f7db5e" id="8f82fe7e-78c5-4985-aa6d-d7f3d978f083" points="44 2 52 2 48.75 8 54 8 45 20.06 47 11 41 11.02 44 2"/><polygon data-name="&lt;Path&gt;" fill="none" id="461bcf40-697d-4e0f-b61d-6d25bb858182" points="44 2 52 2 48.75 8 54 8 45 20.06 47 11 41 11.02 44 2" stroke="#000" stroke-linecap="round" stroke-linejoin="round" stroke-width="2"/><path d="M15,41.8A2.19,2.19,0,0,1,12.8,44H4.44l.11-5.43,8.68,1.08A2.19,2.19,0,0,1,15,41.8Z" data-name="&lt;Path&gt;" fill="#c8c981" id="bb9f7f8f-746d-4bd7-9d74-3ab87b54760f" stroke="#001c63" stroke-linecap="round" stroke-linejoin="round" stroke-width="2"/><path d="M59.56,44H51.2a2.2,2.2,0,0,1-.43-4.35l8.68-1.08Z" data-name="&lt;Path&gt;" fill="#c8c981" id="eecb0500-9586-451f-862e-62cedd1856fa" stroke="#001c63" stroke-linecap="round" stroke-linejoin="round" stroke-width="2"/><line data-name="&lt;Path&gt;" fill="none" id="6e961a71-a2d3-424b-af9b-b6113570214f" stroke="#001c63" stroke-linecap="round" stroke-linejoin="round" stroke-width="2" x1="20" x2="20" y1="44" y2="53"/><line data-name="&lt;Path&gt;" fill="none" id="0d5e9091-b4c6-4933-a5d5-3e1f037da281" stroke="#001c63" stroke-linecap="round" stroke-linejoin="round" stroke-width="2" x1="43" x2="43" y1="44" y2="53"/><line data-name="&lt;Path&gt;" fill="none" id="9f0b42c9-2ddd-47e4-a710-6c9ff0564bba" stroke="#fff" stroke-linecap="round" stroke-linejoin="round" x1="26" x2="26" y1="38" y2="38"/><path d="M11,34l1.55,1.55A8.38,8.38,0,0,0,18.47,38H23" data-name="&lt;Path&gt;" fill="none" id="0678e479-cfba-47c7-8bc3-3441a815d397" stroke="#fff" stroke-linecap="round" stroke-linejoin="round"/><line data-name="&lt;Path&gt;" fill="none" id="b246b8c4-6fbf-4ee4-9be1-fe446e3146c6" stroke="#fff" stroke-linecap="round" stroke-linejoin="round" x1="33" x2="43" y1="17.5" y2="18"/><line data-name="&lt;Path&gt;" fill="none" id="be9536c5-ccba-47ae-8e1b-776b536ec2de" stroke="#fff" stroke-linecap="round" stroke-linejoin="round" x1="49" x2="50" y1="21" y2="23"/></g></svg>