<?xml version="1.0" ?><!DOCTYPE svg  PUBLIC '-//W3C//DTD SVG 1.1//EN'  'http://www.w3.org/Graphics/SVG/1.1/DTD/svg11.dtd'><svg height="100%" style="fill-rule:evenodd;clip-rule:evenodd;stroke-linejoin:round;stroke-miterlimit:2;" version="1.1" viewBox="0 0 32 32" width="100%" xml:space="preserve" xmlns="http://www.w3.org/2000/svg" xmlns:serif="http://www.serif.com/" xmlns:xlink="http://www.w3.org/1999/xlink"><path d="M17.073,23.008c-0.572,0.084 -5.3,0.116 -8.452,0.304c-1.451,0.086 -2.587,0.226 -2.932,0.389c-1.82,0.863 -3.549,2.657 -3.549,2.657c-0.09,0.093 -0.14,0.218 -0.14,0.347l-0,1.795c-0,0.276 0.224,0.5 0.5,0.5l27,0c0.276,0 0.5,-0.224 0.5,-0.5l0,-4.997c0,-0.021 -0.001,-0.041 -0.004,-0.061c-0.08,-0.651 -0.248,-1.293 -0.724,-1.853c-0.662,-0.78 -1.976,-1.434 -4.744,-1.588c-2.29,-0.127 -3.565,0.579 -4.62,1.367c-0.912,0.682 -1.619,1.461 -2.835,1.64l-0,0Z" style="fill:#f4d160;"/><path d="M3.5,29c-0.276,-0 -0.5,-0.224 -0.5,-0.5l0,-1.795c0,-0.129 0.05,-0.254 0.14,-0.347c-0,0 1.729,-1.794 3.549,-2.657c0.345,-0.163 1.481,-0.303 2.932,-0.389c3.152,-0.188 7.88,-0.22 8.452,-0.304l-0,0c1.216,-0.179 1.923,-0.958 2.835,-1.64c0.888,-0.663 1.932,-1.269 3.606,-1.368c-2.281,-0.123 -3.553,0.582 -4.606,1.368c-0.912,0.682 -1.619,1.461 -2.835,1.64l-0,0c-0.572,0.084 -5.3,0.116 -8.452,0.304c-1.451,0.086 -2.587,0.226 -2.932,0.389c-1.82,0.863 -3.549,2.657 -3.549,2.657c-0.09,0.093 -0.14,0.218 -0.14,0.347l-0,1.795c-0,0.276 0.224,0.5 0.5,0.5l1,0Z" style="fill:#d3a511;"/><path d="M4.728,14c-0.144,0 -0.28,0.061 -0.375,0.169c-0.095,0.107 -0.139,0.25 -0.122,0.392c0,-0 0.869,7.101 1.178,9.627c0.092,0.752 0.731,1.318 1.489,1.318l9.166,-0c0.758,-0 1.396,-0.566 1.489,-1.318c0.309,-2.526 1.177,-9.627 1.177,-9.627c0.018,-0.142 -0.027,-0.285 -0.122,-0.392c-0.095,-0.108 -0.231,-0.169 -0.374,-0.169l-13.506,-0Z" style="fill:#8ac4d0;"/><path d="M5.747,14l-1.019,-0c-0.144,0 -0.28,0.061 -0.375,0.169c-0.095,0.107 -0.139,0.25 -0.122,0.392c0,-0 0.869,7.101 1.178,9.627c0.092,0.752 0.731,1.318 1.489,1.318l9.166,-0c-0,-0 -8.147,-0 -8.147,-0c-0.758,-0 -1.397,-0.566 -1.489,-1.318c-0.309,-2.526 -1.177,-9.627 -1.177,-9.627c-0.018,-0.142 0.027,-0.285 0.121,-0.392c0.095,-0.108 0.232,-0.169 0.375,-0.169Z" style="fill:#4ca4b6;"/><path d="M3,12.5l-0,1c0,0.828 0.672,1.5 1.5,1.5l14,-0c0.828,-0 1.5,-0.672 1.5,-1.5l-0.001,-1.04l-0.003,-0.02c-0.029,-0.248 -0.24,-0.44 -0.496,-0.44l-16,0c-0.276,-0 -0.5,0.224 -0.5,0.5Z" style="fill:#28527a;"/><path d="M4.498,12l-0.998,0c-0.276,-0 -0.5,0.224 -0.5,0.5l-0,1c0,0.828 0.672,1.5 1.5,1.5l14,-0c0,-0 -13,-0 -13,-0c-0.828,-0 -1.5,-0.672 -1.5,-1.5l0,-1c0,-0.275 0.223,-0.499 0.498,-0.5Z" style="fill:#063c6f;"/><path d="M4.276,11.937c-0.096,0.202 -0.092,0.415 0.127,0.609c0.047,0.042 0.143,0.108 0.306,0.146c0.201,0.048 0.674,0.094 1.333,0.128c3.085,0.158 10.507,0.158 11.953,0.059c0.164,-0.011 0.274,-0.028 0.322,-0.041c0.101,-0.028 0.163,-0.071 0.199,-0.099c0.169,-0.135 0.199,-0.296 0.189,-0.434c-0.046,-0.592 -0.221,-1.511 -1.202,-2.143c-0.16,-0.103 -0.341,-0.368 -0.535,-0.661c-0.365,-0.55 -0.73,-1.21 -0.95,-1.516c-0.227,-0.316 -0.575,-0.696 -1.15,-1.171c-1.271,-1.048 -2.353,-0.781 -3.49,-0.167c-0.908,0.489 -1.85,1.248 -3.036,1.412c-0.861,0.119 -1.618,0.59 -2.247,1.205c-0.874,0.857 -1.495,1.987 -1.819,2.673Z" style="fill:#f4d160;"/><path d="M13.988,12.947c-2.506,-0.005 -5.297,-0.045 -6.907,-0.127c-0.659,-0.034 -1.133,-0.08 -1.333,-0.128c-0.163,-0.038 -0.259,-0.104 -0.306,-0.146c-0.219,-0.194 -0.223,-0.407 -0.128,-0.609c0.325,-0.686 0.946,-1.816 1.82,-2.673c0.628,-0.615 1.385,-1.086 2.247,-1.205c1.186,-0.164 2.128,-0.923 3.036,-1.412c0.408,-0.221 0.81,-0.397 1.216,-0.483c-0.775,-0.178 -1.503,0.077 -2.255,0.483c-0.908,0.489 -1.85,1.248 -3.036,1.412c-0.861,0.119 -1.618,0.59 -2.247,1.205c-0.874,0.857 -1.495,1.987 -1.819,2.673c-0.096,0.202 -0.092,0.415 0.127,0.609c0.047,0.042 0.143,0.108 0.306,0.146c0.201,0.048 0.674,0.094 1.333,0.128c1.837,0.094 5.211,0.132 7.946,0.127Z" style="fill:#d3a511;"/><path d="M12.976,6.111c0.509,0.033 1.035,0.239 1.597,0.703c0.576,0.475 0.924,0.855 1.151,1.171c0.22,0.306 0.585,0.966 0.95,1.516c0.194,0.293 0.374,0.558 0.535,0.661c0.98,0.632 1.155,1.551 1.201,2.143c0.011,0.138 -0.02,0.299 -0.189,0.434c-0.035,0.028 -0.097,0.071 -0.199,0.099c-0.048,0.013 -0.157,0.03 -0.322,0.041c-0.625,0.043 -2.368,0.067 -4.395,0.068c2.151,0.001 4.034,-0.023 4.69,-0.068c0.164,-0.011 0.274,-0.028 0.322,-0.041c0.101,-0.028 0.163,-0.071 0.199,-0.099c0.169,-0.135 0.199,-0.296 0.189,-0.434c-0.046,-0.592 -0.221,-1.511 -1.202,-2.143c-0.16,-0.103 -0.341,-0.368 -0.535,-0.661c-0.365,-0.55 -0.73,-1.21 -0.95,-1.516c-0.227,-0.316 -0.575,-0.696 -1.15,-1.171c-0.672,-0.554 -1.291,-0.74 -1.892,-0.703Z" style="fill:#ffe286;"/><path d="M19.248,5.886c-0.195,-0.195 -0.512,-0.195 -0.707,-0l-2.709,2.709c-0.176,0.176 -0.196,0.455 -0.046,0.654l1.279,1.702c0.087,0.116 0.22,0.188 0.364,0.199c0.145,0.01 0.287,-0.043 0.389,-0.146l2.921,-2.92c0.195,-0.196 0.195,-0.512 -0,-0.708l-1.491,-1.49Z" style="fill:#8ac4d0;"/><path d="M18.702,5.778c0.059,0.024 0.113,0.06 0.161,0.108l1.491,1.49c0.195,0.196 0.195,0.512 -0,0.708l-2.921,2.92c-0.047,0.047 -0.102,0.083 -0.161,0.108c0.049,0.021 0.103,0.034 0.157,0.038c0.145,0.01 0.287,-0.043 0.389,-0.146l2.921,-2.92c0.195,-0.196 0.195,-0.512 -0,-0.708l-1.491,-1.49c-0.147,-0.148 -0.364,-0.184 -0.546,-0.108Z" style="fill:#9ee0ee;"/><path d="M17.918,5.97l2.908,2.9c0.519,0.593 1.583,0.524 2.14,-0.034c0.579,-0.587 0.576,-1.531 -0.007,-2.114l-2.908,-2.867c-0.59,-0.581 -1.538,-0.574 -2.119,0.014c-0.007,0.007 -0.014,0.014 -0.02,0.021c-0.571,0.577 -0.568,1.506 0.006,2.079l-0,0.001Z" style="fill:#28527a;"/><path d="M18.756,3.443c0.296,0.049 0.58,0.186 0.809,0.412l2.908,2.867c0.583,0.583 0.586,1.527 0.007,2.114c-0.234,0.234 -0.558,0.383 -0.893,0.432c0.487,0.074 1.031,-0.084 1.379,-0.432c0.579,-0.587 0.576,-1.531 -0.007,-2.114l-2.908,-2.867c-0.355,-0.349 -0.839,-0.486 -1.295,-0.412Z" style="fill:#3d668e;"/></svg>