<?xml version="1.0" ?><!DOCTYPE svg  PUBLIC '-//W3C//DTD SVG 1.1//EN'  'http://www.w3.org/Graphics/SVG/1.1/DTD/svg11.dtd'><svg height="32px" style="fill-rule:evenodd;clip-rule:evenodd;stroke-linejoin:round;stroke-miterlimit:2;" version="1.1" width="32px" xml:space="preserve" xmlns="http://www.w3.org/2000/svg" xmlns:serif="http://www.serif.com/" xmlns:xlink="http://www.w3.org/1999/xlink"><path d="M21.142,28c0.479,-0 0.868,-0.392 0.868,-0.875l-0,-6.275c-0,-0.697 -0.275,-1.364 -0.763,-1.856l-0.988,-0.996c-0.088,-1.165 -0.589,-2.132 -1.333,-3.033c-0.488,-0.595 -1.213,-0.941 -1.979,-0.945c-1.06,-0.02 -3.041,-0.02 -4.485,-0.02c-1.438,0 -2.604,1.175 -2.604,2.625l0,3.358c0,0 -0.734,2.221 -0.734,2.221c-0.088,0.268 -0.134,0.548 -0.134,0.83l0,4.091c0,0.483 0.389,0.875 0.868,0.875l11.284,-0Z" style="fill:#d2d3c9;"/><path d="M11.75,10c-0.414,0 -0.75,0.358 -0.75,0.8l-0,2.4c-0,0.442 0.336,0.8 0.75,0.8l4.5,-0c0.414,-0 0.75,-0.358 0.75,-0.8l-0,-2.4c-0,-0.442 -0.336,-0.8 -0.75,-0.8l-4.5,0Zm13.25,-5.286c-0,-0.394 -0.269,-0.714 -0.6,-0.714l-1.8,0c-0.331,0 -0.6,0.32 -0.6,0.714l-0,3.572c-0,0.394 0.269,0.714 0.6,0.714l1.8,-0c0.331,-0 0.6,-0.32 0.6,-0.714l-0,-3.572Z" style="fill:#0e918c;"/><path d="M13.933,21c-0.322,0 -0.611,0.172 -0.724,0.433l-1.16,2.666c-0.089,0.205 -0.056,0.434 0.089,0.614c0.144,0.18 0.382,0.287 0.635,0.287l5.454,0c0.427,0 0.773,-0.298 0.773,-0.667c0,-1.294 -0.041,-2.1 -0.041,-2.666c-0,-0.369 -0.346,-0.667 -0.773,-0.667c-0.654,0 -4.253,-0 -4.253,0Zm5.274,-11.012c0.242,0.114 2.069,-0.594 1.956,-0.67l0.361,-0.156c0.292,-0.127 0.476,-0.386 0.476,-0.668l-0,-3.736c-0,-0.411 -0.384,-0.745 -0.858,-0.747c-0,0 -7.659,-0.02 -9.212,-0.006c-0.214,0.002 -0.344,0.009 -0.371,0.012c-0.318,0.036 -0.458,0.176 -0.501,0.213c-0,0 -4.306,3.735 -4.306,3.735c-0.196,0.17 -0.285,0.411 -0.241,0.648c0.044,0.237 0.217,0.441 0.465,0.549l1.359,0.589c0.358,0.156 0.754,0.237 1.155,0.237l9.717,-0Z" style="fill:#f6830f;"/><path d="M25,3l-11,0c-0.552,-0 -1,0.448 -1,1c-0,0.552 0.448,1 1,1l7,0l-0,3.382c0,-0 -1.236,0.618 -1.236,0.618c-0,0 -11.292,0 -11.292,0c-0.155,-0 -0.308,-0.036 -0.447,-0.106c-0,0 -0.337,-0.168 -0.337,-0.168c0,0 4.019,-4.019 4.019,-4.019c0.39,-0.39 0.39,-1.024 0,-1.414c-0.39,-0.39 -1.024,-0.39 -1.414,-0l-5,5c-0.227,0.227 -0.332,0.55 -0.28,0.867c0.051,0.317 0.252,0.591 0.54,0.734l1.578,0.789c0.416,0.209 0.875,0.317 1.341,0.317l1.528,0l-0,2.764c-0.614,0.549 -1,1.347 -1,2.236l-0,3.838c0,-0 -0.846,2.538 -0.846,2.538c-0.102,0.306 -0.154,0.626 -0.154,0.949l-0,4.675c0,0.552 0.448,1 1,1l13,0c0.552,0 1,-0.448 1,-1c-0,-0.698 -0.007,-1.368 -0.01,-2.005c-0.003,-0.552 -0.454,-0.998 -1.005,-0.995c-0.552,0.003 -0.998,0.453 -0.995,1.005c0.001,0.324 0.004,0.655 0.006,0.995c0,0 -10.996,0 -10.996,0c-0,-0 0,-3.675 0,-3.675c0,-0.108 0.017,-0.215 0.051,-0.317l0.898,-2.692c0.034,-0.102 0.051,-0.209 0.051,-0.316l0,-4c0,-0.552 0.448,-1 1,-1c1.653,-0 3.922,-0 5.134,0.023c0.006,-0 0.013,0 0.019,0c0.291,0 0.567,0.13 0.753,0.355c0.001,0.001 0.002,0.002 0.003,0.003c0.641,0.77 1.091,1.585 1.091,2.619c-0,0.265 0.105,0.52 0.293,0.707c0.606,0.606 0.751,0.751 1.706,1.802c-0.003,0.543 -0.01,0.329 0.001,2.496c0.003,0.552 0.453,0.998 1.005,0.995c0.552,-0.003 0.998,-0.453 0.995,-1.005c-0.011,-2.212 -0.003,-1.929 -0.001,-2.526c0.072,-0.389 -0.047,-0.801 -0.331,-1.097c-0.986,-1.086 -1.23,-1.346 -1.685,-1.803c-0.101,-1.331 -0.678,-2.436 -1.536,-3.466c-0.381,-0.461 -0.886,-0.791 -1.447,-0.957l-0,-2.146l1.757,0c0.28,0.153 0.831,0.477 1.341,0.928c0.404,0.358 0.806,0.79 0.93,1.306c0.129,0.536 0.669,0.867 1.206,0.738c0.536,-0.129 0.867,-0.669 0.738,-1.206c-0.216,-0.901 -0.842,-1.711 -1.55,-2.336c-0.13,-0.115 -0.262,-0.224 -0.394,-0.326l0.208,-0.104l2.764,0c0.552,0 1,-0.448 1,-1l-0,-5c0,-0.552 -0.448,-1 -1,-1Zm-12.949,18.684l-1,3c-0.101,0.305 -0.05,0.64 0.138,0.901c0.188,0.26 0.49,0.415 0.811,0.415l7.053,0c0.553,0 1,-0.448 1,-1c0,-1.942 -0.053,-3.151 -0.053,-4c-0,-0.552 -0.448,-1 -1,-1c-0.845,0 -4,-0 -4,-0c-0.552,0 -1,0.448 -1,1c0,0.552 0.448,1 1,1l3.014,0c0.012,0.542 0.027,1.195 0.035,2c-0.001,-0 -4.662,-0 -4.662,-0c0,0 0.562,-1.684 0.562,-1.684c0.174,-0.523 -0.109,-1.09 -0.633,-1.265c-0.523,-0.174 -1.09,0.109 -1.265,0.633Zm3.949,-8.675l-0,-2.009l-4,0l-0,2c1.221,0 2.776,0 4,0.009Zm8,-8.009l-0,3c0,0 -1,0 -1,0c-0,-0 -0,-3 -0,-3l1,0Z" id="_24-Spray"/></svg>