<?xml version="1.0" ?><svg id="Layer_1" style="enable-background:new 0 0 250 250;" version="1.1" viewBox="0 0 250 250" xml:space="preserve" xmlns="http://www.w3.org/2000/svg" xmlns:xlink="http://www.w3.org/1999/xlink"><style type="text/css">
	.st0{fill:#73D84A;}
	.st1{fill:#FCC12D;}
	.st2{fill:#46E6F2;}
	.st3{fill:none;stroke:#FFFFFF;stroke-width:3;stroke-linecap:round;stroke-linejoin:round;stroke-miterlimit:10;}
	.st4{fill:none;stroke:#231F20;stroke-width:3;stroke-linecap:round;stroke-linejoin:round;stroke-miterlimit:10;}
</style><rect class="st0" height="130.3" id="XMLID_29_" width="34.3" x="60.6" y="55.4"/><rect class="st1" height="7.1" id="XMLID_28_" width="34.3" x="60.6" y="65"/><rect class="st1" height="7.1" id="XMLID_27_" width="34.3" x="60.6" y="169.1"/><rect class="st2" height="111.2" id="XMLID_26_" width="42" x="94.9" y="74.5"/><path class="st1" d="M111.9,172.6h7.9c0-4.4,3.5-7.9,7.9-7.9V95.6c-4.4,0-7.9-3.5-7.9-7.9h-7.9  c0,4.4-3.5,7.9-7.9,7.9v69.1C108.4,164.7,111.9,168.3,111.9,172.6z" id="XMLID_25_"/><polygon class="st1" id="XMLID_24_" points="201.7,183.5 224.4,166.9 160.1,76.8 137.4,93.4 "/><polygon class="st0" id="XMLID_23_" points="146.1,105.5 168.7,88.9 165.2,83.9 142.5,100.5 "/><rect class="st3" height="7.1" id="XMLID_22_" width="34.3" x="57.5" y="62.9"/><rect class="st3" height="7.1" id="XMLID_21_" width="34.3" x="57.5" y="167"/><path class="st3" d="M108.8,170.5h7.9c0-4.4,3.5-7.9,7.9-7.9V93.5c-4.4,0-7.9-3.5-7.9-7.9h-7.9  c0,4.4-3.5,7.9-7.9,7.9v69.1C105.2,162.6,108.8,166.2,108.8,170.5z" id="XMLID_20_"/><polygon class="st3" id="XMLID_19_" points="142.9,103.4 165.6,86.8 162,81.8 139.3,98.4 "/><rect class="st4" height="130.3" id="XMLID_18_" width="34.3" x="57.5" y="53.3"/><rect class="st4" height="111.2" id="XMLID_17_" width="42" x="91.8" y="72.4"/><polygon class="st4" id="XMLID_16_" points="198.6,181.4 221.3,164.8 156.9,74.7 134.3,91.3 "/></svg>