<svg width="24" height="25" viewBox="0 0 24 25" fill="none" xmlns="http://www.w3.org/2000/svg">
<g id="image" clip-path="url(#clip0_1_4854)">
<path id="Vector" d="M14.961 3.77933C15.6409 2.84556 16.1022 1.59177 15.9805 0.310547C14.9853 0.364888 13.7709 1.03153 13.0678 1.96604C12.4364 2.7663 11.8777 4.07258 12.0233 5.30009C13.1405 5.40651 14.2566 4.6869 14.961 3.77933Z" fill="black"/>
<path id="Vector_2" d="M16.3801 5.31791C14.559 5.20805 13.0106 6.36459 12.141 6.36459C11.2709 6.36459 9.93914 5.37327 8.49877 5.39998C6.62405 5.42787 4.88452 6.50133 3.93317 8.20863C1.97642 11.624 3.41678 16.6903 5.31962 19.472C6.24369 20.8482 7.35733 22.3635 8.82474 22.3091C10.2112 22.254 10.7546 21.3999 12.4399 21.3999C14.124 21.3999 14.6135 22.3091 16.0811 22.2815C17.6031 22.254 18.5546 20.9047 19.4787 19.5271C20.5387 17.9583 20.9727 16.4435 21 16.3604C20.9727 16.3328 18.0652 15.2033 18.0382 11.8162C18.0108 8.98023 20.321 7.63125 20.4297 7.54759C19.1251 5.59359 17.0867 5.37327 16.3801 5.31791Z" fill="black"/>
</g>
<defs>
<clipPath id="clip0_1_4854">
<rect width="24" height="24" fill="white" transform="translate(0 0.310547)"/>
</clipPath>
</defs>
</svg>
