<svg width="25" height="25" viewBox="0 0 25 25" fill="none" xmlns="http://www.w3.org/2000/svg">
<g id="image" clip-path="url(#clip0_1_4860)">
<path id="Vector" d="M3.02656 0.710938C2.74662 0.990871 2.56 1.45743 2.56 2.0173V22.6392C2.56 23.199 2.74662 23.6656 3.02656 23.9455L3.11987 24.0389L14.6905 12.4682L3.02656 0.710938Z" fill="url(#paint0_linear_1_4860)"/>
<path id="Vector_2" d="M18.5163 16.2936L14.6905 12.4679L18.5163 8.54883L23.0885 11.1615C24.3949 11.908 24.3949 13.121 23.0885 13.8675L18.5163 16.2936Z" fill="url(#paint1_linear_1_4860)"/>
<path id="Vector_3" d="M18.5163 16.2945L14.6905 12.4688L3.02655 23.9462C3.49311 24.4127 4.14629 24.4127 4.98609 24.0395L18.5163 16.2945Z" fill="url(#paint2_linear_1_4860)"/>
<path id="Vector_4" d="M18.5163 8.54877L4.89278 0.617286C4.14629 0.150728 3.3998 0.244039 3.02655 0.710597L14.6905 12.4678L18.5163 8.54877Z" fill="url(#paint3_linear_1_4860)"/>
</g>
<defs>
<linearGradient id="paint0_linear_1_4860" x1="13.596" y1="1.80194" x2="-2.06386" y2="17.4619" gradientUnits="userSpaceOnUse">
<stop stop-color="#00A0FF"/>
<stop offset="0.00657445" stop-color="#00A1FF"/>
<stop offset="0.2601" stop-color="#00BEFF"/>
<stop offset="0.5122" stop-color="#00D2FF"/>
<stop offset="0.7604" stop-color="#00DFFF"/>
<stop offset="1" stop-color="#00E3FF"/>
</linearGradient>
<linearGradient id="paint1_linear_1_4860" x1="24.8258" y1="12.3382" x2="2.2473" y2="12.3382" gradientUnits="userSpaceOnUse">
<stop stop-color="#FFE000"/>
<stop offset="0.4087" stop-color="#FFBD00"/>
<stop offset="0.7754" stop-color="#FFA500"/>
<stop offset="1" stop-color="#FF9C00"/>
</linearGradient>
<linearGradient id="paint2_linear_1_4860" x1="16.4209" y1="14.4802" x2="-4.81525" y2="35.7164" gradientUnits="userSpaceOnUse">
<stop stop-color="#FF3A44"/>
<stop offset="1" stop-color="#C31162"/>
</linearGradient>
<linearGradient id="paint3_linear_1_4860" x1="0.0636334" y1="-6.16114" x2="9.54651" y2="3.32164" gradientUnits="userSpaceOnUse">
<stop stop-color="#32A071"/>
<stop offset="0.0685" stop-color="#2DA771"/>
<stop offset="0.4762" stop-color="#15CF74"/>
<stop offset="0.8009" stop-color="#06E775"/>
<stop offset="1" stop-color="#00F076"/>
</linearGradient>
<clipPath id="clip0_1_4860">
<rect width="24" height="24" fill="white" transform="translate(0.559998 0.310547)"/>
</clipPath>
</defs>
</svg>
