<svg width="32" height="33" viewBox="0 0 32 33" fill="none" xmlns="http://www.w3.org/2000/svg">
<g id="Frame">
<path id="Vector" d="M16 0.810547C29.3333 0.810547 32 3.47722 32 16.8105C32 30.1439 29.3333 32.8105 16 32.8105C2.66667 32.8105 0 30.1439 0 16.8105C0 3.47722 2.66667 0.810547 16 0.810547Z" fill="url(#paint0_linear_1_4874)"/>
<path id="Vector_2" d="M7.86117 16.6758C12.5255 14.6436 15.6358 13.3039 17.192 12.6566C21.6354 10.8084 22.5587 10.4874 23.1605 10.4767C23.2929 10.4745 23.5888 10.5073 23.7805 10.6628C23.9423 10.7942 23.9869 10.9716 24.0082 11.0962C24.0295 11.2207 24.0561 11.5043 24.035 11.726C23.7942 14.2559 22.7523 20.3956 22.2223 23.2292C21.998 24.4282 21.5563 24.8302 21.1288 24.8695C20.1996 24.9551 19.4941 24.2555 18.5942 23.6656C17.186 22.7425 16.3904 22.1679 15.0235 21.2671C13.4438 20.2261 14.4679 19.6539 15.3681 18.7188C15.6037 18.4742 19.6976 14.7505 19.7768 14.4127C19.7867 14.3705 19.7959 14.213 19.7023 14.1298C19.6088 14.0467 19.4707 14.0751 19.3711 14.0977C19.2298 14.1298 16.9802 15.6167 12.6222 18.5585C11.9836 18.997 11.4052 19.2106 10.8871 19.1994C10.3158 19.1871 9.21688 18.8764 8.39993 18.6108C7.39789 18.2851 6.60154 18.113 6.6709 17.5598C6.70701 17.2716 7.10378 16.977 7.86117 16.6758Z" fill="white"/>
</g>
<defs>
<linearGradient id="paint0_linear_1_4874" x1="16" y1="0.810547" x2="16" y2="32.5731" gradientUnits="userSpaceOnUse">
<stop stop-color="#2AABEE"/>
<stop offset="1" stop-color="#229ED9"/>
</linearGradient>
</defs>
</svg>
