<svg width="32" height="33" viewBox="0 0 32 33" fill="none" xmlns="http://www.w3.org/2000/svg">
<g id="&#208;&#161;&#208;&#187;&#208;&#190;&#208;&#185;_1">
<g id="surface1">
<path id="Vector" d="M32 28.3661C32 30.855 30.0444 32.8105 27.5556 32.8105H4.44444C1.95556 32.8105 0 30.855 0 28.3661V5.25499C0 2.7661 1.95556 0.810547 4.44444 0.810547H27.5556C30.0444 0.810547 32 2.7661 32 5.25499V28.3661Z" fill="#3B5998"/>
<path id="Vector_2" d="M25.2444 17.6999H22.2222V29.2554H17.7778V17.6999H15.1111V14.1443H17.7778V12.011C17.7778 8.89987 19.1111 7.0332 22.7556 7.0332H25.7778V10.5888H23.7333C22.3111 10.5888 22.2222 11.1221 22.2222 12.0999V14.1443H25.7778L25.2444 17.6999Z" fill="white"/>
</g>
</g>
</svg>
