<svg width="32" height="33" viewBox="0 0 32 33" fill="none" xmlns="http://www.w3.org/2000/svg">
<g id="Frame">
<path id="Vector" d="M16 0.810547C29.3333 0.810547 32 3.47721 32 16.8105C32 30.1439 29.3333 32.8105 16 32.8105C2.66667 32.8105 0 30.1439 0 16.8105C0 3.47721 2.66667 0.810547 16 0.810547Z" fill="url(#paint0_linear_1_4870)"/>
<path id="Vector_2" fill-rule="evenodd" clip-rule="evenodd" d="M15.9998 9.15816C18.4921 9.15816 18.7869 9.16783 19.7713 9.21263C20.6812 9.2541 21.1754 9.40603 21.5044 9.53383C21.9401 9.70316 22.2509 9.90543 22.5777 10.2318C22.9045 10.5586 23.1067 10.8694 23.2757 11.3051C23.4035 11.6341 23.5554 12.1283 23.5969 13.0382C23.6417 14.0222 23.6513 14.3175 23.6513 16.8097C23.6513 19.302 23.6417 19.5968 23.5969 20.5812C23.5554 21.4911 23.4035 21.9853 23.2757 22.3143C23.1064 22.75 22.9041 23.0608 22.5777 23.3876C22.2509 23.7144 21.9401 23.9166 21.5044 24.0856C21.1754 24.2134 20.6812 24.3653 19.7713 24.4068C18.7873 24.4516 18.4921 24.4612 15.9998 24.4612C13.5076 24.4612 13.2123 24.4516 12.2283 24.4068C11.3184 24.3653 10.8242 24.2134 10.4952 24.0856C10.0595 23.9163 9.74866 23.714 9.42192 23.3876C9.09519 23.0608 8.89286 22.75 8.72392 22.3143C8.59612 21.9853 8.44419 21.4911 8.40272 20.5812C8.35792 19.5972 8.34826 19.302 8.34826 16.8097C8.34826 14.3175 8.35792 14.0226 8.40272 13.0382C8.44419 12.1283 8.59612 11.6341 8.72392 11.3051C8.89326 10.8694 9.09552 10.5586 9.42192 10.2318C9.74866 9.9051 10.0595 9.70276 10.4952 9.53383C10.8242 9.40603 11.3184 9.2541 12.2283 9.21263C13.2127 9.16783 13.5076 9.15816 15.9998 9.15816ZM15.9998 7.47656C13.465 7.47656 13.1471 7.4873 12.1516 7.5329C11.1584 7.5781 10.48 7.7359 9.88612 7.9667C9.27226 8.2053 8.75172 8.5243 8.23306 9.0433C7.71439 9.56203 7.39499 10.0825 7.15679 10.696C6.92599 11.2899 6.76819 11.9683 6.72299 12.9615C6.67739 13.957 6.66666 14.2749 6.66666 16.8097C6.66666 19.3446 6.67739 19.6624 6.72299 20.6579C6.76819 21.6512 6.92599 22.3295 7.15679 22.9234C7.39539 23.5373 7.71439 24.0578 8.23339 24.5765C8.75246 25.0955 9.27259 25.4145 9.88652 25.6531C10.48 25.8839 11.1587 26.0417 12.152 26.0869C13.1475 26.1325 13.4653 26.1432 16.0002 26.1432C18.535 26.1432 18.8529 26.1325 19.8484 26.0869C20.8416 26.0417 21.5203 25.8839 22.1139 25.6531C22.7277 25.4145 23.2483 25.0955 23.7669 24.5765C24.286 24.0574 24.605 23.5373 24.8435 22.9234C25.0743 22.3299 25.2322 21.6512 25.2774 20.6579C25.3229 19.6624 25.3337 19.3446 25.3337 16.8097C25.3337 14.2749 25.3229 13.957 25.2774 12.9615C25.2322 11.9683 25.0743 11.2896 24.8435 10.696C24.605 10.0822 24.286 9.56163 23.7669 9.04296C23.2479 8.5239 22.7277 8.2049 22.1139 7.96636C21.5196 7.7359 20.8413 7.5781 19.848 7.5329C18.8525 7.4873 18.5347 7.47656 15.9998 7.47656ZM15.9998 12.0172C13.3527 12.0172 11.2073 14.163 11.2073 16.8097C11.2073 19.4564 13.3531 21.6022 15.9998 21.6022C18.6465 21.6022 20.7923 19.4564 20.7923 16.8097C20.7923 14.163 18.6469 12.0172 15.9998 12.0172ZM15.9998 19.9206C14.2815 19.9206 12.8889 18.5276 12.8889 16.8097C12.8889 15.0914 14.2819 13.6988 15.9998 13.6988C17.7177 13.6988 19.1107 15.0918 19.1107 16.8097C19.1107 18.528 17.7181 19.9206 15.9998 19.9206ZM22.102 11.8275C22.102 12.446 21.6006 12.9474 20.9821 12.9474C20.3635 12.9474 19.8621 12.446 19.8621 11.8275C19.8621 11.209 20.3635 10.7075 20.9821 10.7075C21.6006 10.7075 22.102 11.209 22.102 11.8275Z" fill="white"/>
</g>
<defs>
<linearGradient id="paint0_linear_1_4870" x1="28.5403" y1="4.58148" x2="3.36279" y2="29.1341" gradientUnits="userSpaceOnUse">
<stop stop-color="#BA00B2"/>
<stop offset="0.5" stop-color="#F40000"/>
<stop offset="1" stop-color="#FFA800"/>
</linearGradient>
</defs>
</svg>
