<svg width="21" height="20" viewBox="0 0 21 20" fill="none" xmlns="http://www.w3.org/2000/svg">
<g id="image">
<path id="Vector" fill-rule="evenodd" clip-rule="evenodd" d="M11.9151 1.86715V0.99585L11.1628 1.43546L11.4151 1.86715C11.1628 1.43546 11.163 1.43534 11.1628 1.43546L11.1619 1.43599L11.1606 1.43677L11.1567 1.43905L11.1442 1.44655C11.1337 1.45285 11.1191 1.46176 11.1006 1.47327C11.0635 1.49628 11.0109 1.52971 10.945 1.57349C10.8131 1.66103 10.6275 1.79021 10.4061 1.96061C9.96409 2.30092 9.37566 2.80844 8.78662 3.48037C7.73053 4.68505 6.6563 6.43815 6.44679 8.7112C6.3835 8.62082 6.32243 8.5088 6.26421 8.37345C6.17848 8.17417 6.1204 7.9695 6.08372 7.81119C6.06561 7.73302 6.05325 7.6685 6.04558 7.62465C6.04175 7.60278 6.03911 7.5862 6.03753 7.57581L6.03594 7.56504L6.0358 7.56404L5.89551 6.50496L5.17214 7.2915L5.54016 7.62996C5.17214 7.2915 5.17228 7.29136 5.17214 7.2915L5.17086 7.29289L5.169 7.29494L5.16352 7.301L5.14585 7.32094C5.13118 7.33767 5.11087 7.36125 5.08573 7.39148C5.03547 7.4519 4.96576 7.539 4.88315 7.65095C4.71812 7.87459 4.50041 8.19907 4.28316 8.60986C3.84968 9.42955 3.41016 10.6083 3.41016 12.0221C3.41016 15.8743 6.54935 19.0009 10.4102 19.0009C14.271 19.0009 17.4102 15.8743 17.4102 12.0221C17.4102 9.18756 15.8894 7.67893 14.5073 6.36405L14.4222 6.2832C13.0635 4.99143 11.9151 3.89964 11.9151 1.86715ZM9.53858 4.13958C10.0619 3.54259 10.5859 3.08691 10.9848 2.77724C11.2878 4.68829 12.5256 5.86244 13.6687 6.94682L13.818 7.08856C15.1834 8.38755 16.4102 9.63833 16.4102 12.0221C16.4102 15.3189 13.7218 18.0009 10.4102 18.0009C7.09855 18.0009 4.41016 15.3189 4.41016 12.0221C4.41016 10.8161 4.78564 9.79878 5.16716 9.07735C5.22649 8.96516 5.28577 8.8605 5.34353 8.76381L5.3456 8.76861C5.55857 9.26369 6.02085 10.0121 6.91016 10.0121H7.41016V9.51209C7.41016 7.16515 8.4631 5.36638 9.53858 4.13958ZM8.86333 11.3496C8.27195 11.9734 7.66016 12.6187 7.66016 13.7812C7.66016 15.2812 8.89292 16.5 10.4102 16.5C11.9274 16.5 13.1602 15.2812 13.1602 13.7812C13.1602 12.6562 12.4727 11.9687 12.4727 11.9687C12.4727 11.9687 12.2593 12.6484 11.7852 12.6484C11.7852 10.3984 9.95183 9.24996 9.95183 9.24996C9.95183 10.2015 9.41651 10.7661 8.86333 11.3496Z" fill="#7000FF"/>
</g>
</svg>
