<svg width="15" height="15" viewBox="0 0 15 15" fill="none" xmlns="http://www.w3.org/2000/svg">
<g id="image" clip-path="url(#clip0_12_25767)">
<path id="Vector" fill-rule="evenodd" clip-rule="evenodd" d="M7.05029 14.5C10.9163 14.5 14.0503 11.366 14.0503 7.5C14.0503 3.63401 10.9163 0.5 7.05029 0.5C3.1843 0.5 0.050293 3.63401 0.050293 7.5C0.050293 11.366 3.1843 14.5 7.05029 14.5ZM8.05032 4C8.05032 4.55229 7.6026 5 7.05032 5C6.49803 5 6.05032 4.55229 6.05032 4C6.05032 3.44772 6.49803 3 7.05032 3C7.6026 3 8.05032 3.44772 8.05032 4ZM6.15041 6.29844C5.81904 6.29844 5.55041 6.56707 5.55041 6.89844C5.55041 7.22981 5.81904 7.49844 6.15041 7.49844H6.45037V10.3024H5.65188C5.32051 10.3024 5.05188 10.571 5.05188 10.9023C5.05188 11.2337 5.32051 11.5023 5.65188 11.5023H8.45184C8.78321 11.5023 9.05184 11.2337 9.05184 10.9023C9.05184 10.571 8.78321 10.3024 8.45184 10.3024H7.65037V6.89844C7.65037 6.56707 7.38175 6.29844 7.05037 6.29844H6.15041Z" fill="#CACBCE"/>
</g>
<defs>
<clipPath id="clip0_12_25767">
<rect width="14" height="14" fill="white" transform="translate(0.050293 0.5)"/>
</clipPath>
</defs>
</svg>
