<svg width="29" height="28" viewBox="0 0 29 28" fill="none" xmlns="http://www.w3.org/2000/svg">
<g id="Frame">
<path id="Vector" fill-rule="evenodd" clip-rule="evenodd" d="M14.4102 4.5C12.6504 4.5 11.4102 5.88779 11.4102 7.5H17.4102C17.4102 5.88779 16.17 4.5 14.4102 4.5ZM9.91016 11.5V9H7.91016V14.25C7.91016 14.6642 7.57437 15 7.16016 15C6.74594 15 6.41016 14.6642 6.41016 14.25V8.25V7.5H7.16016H9.91016C9.91016 5.11221 11.77 3 14.4102 3C17.0504 3 18.9102 5.11221 18.9102 7.5H21.6602H22.4102V8.25V21.75C22.4102 22.9926 21.4028 24 20.1602 24H15.6602C15.246 24 14.9102 23.6642 14.9102 23.25C14.9102 22.8358 15.246 22.5 15.6602 22.5H20.1602C20.5744 22.5 20.9102 22.1642 20.9102 21.75V9H18.9102V11.5H17.4102V9H11.4102V11.5H9.91016ZM14.684 18.0323C14.9769 17.7395 14.9769 17.2646 14.684 16.9717C14.3911 16.6788 13.9162 16.6788 13.6233 16.9717L8.40564 22.1893L6.1905 19.9742C5.8976 19.6813 5.42273 19.6813 5.12983 19.9741C4.83694 20.267 4.83693 20.7419 5.12982 21.0348L7.87529 23.7803C8.01595 23.921 8.20671 24 8.40563 24C8.60454 24 8.79531 23.921 8.93596 23.7803L14.684 18.0323Z" fill="#141415"/>
</g>
</svg>
