<svg width="25" height="24" viewBox="0 0 25 24" fill="none" xmlns="http://www.w3.org/2000/svg">
<g id="Frame">
<path id="Vector" fill-rule="evenodd" clip-rule="evenodd" d="M15.73 10.5C15.73 13.2614 13.4914 15.5 10.73 15.5C7.96858 15.5 5.73 13.2614 5.73 10.5C5.73 7.73858 7.96858 5.5 10.73 5.5C13.4914 5.5 15.73 7.73858 15.73 10.5ZM14.5698 15.7451C13.494 16.5341 12.1664 17 10.73 17C7.14015 17 4.23 14.0899 4.23 10.5C4.23 6.91015 7.14015 4 10.73 4C14.3199 4 17.23 6.91015 17.23 10.5C17.23 11.9364 16.7641 13.264 15.9751 14.3398L19.939 18.3036C20.327 18.6917 20.327 19.3209 19.939 19.709C19.5509 20.097 18.9217 20.097 18.5336 19.709L14.5698 15.7451Z" fill="black"/>
</g>
</svg>
