<svg width="16" height="16" viewBox="0 0 16 16" fill="none" xmlns="http://www.w3.org/2000/svg">
<g id="Frame">
<path id="Vector" d="M7.99994 10.6667C8.20707 10.6607 8.39647 10.5832 8.55041 10.4162L12.2987 6.53806C12.4289 6.40686 12.4999 6.23986 12.4999 6.04305C12.4999 5.64942 12.1921 5.33333 11.8015 5.33333C11.6121 5.33333 11.4286 5.41086 11.2925 5.54803L8.00587 8.96693L4.70738 5.54803C4.57125 5.41682 4.39368 5.33333 4.19836 5.33333C3.80772 5.33333 3.49994 5.64942 3.49994 6.04305C3.49994 6.23986 3.57097 6.40686 3.70118 6.53806L7.45541 10.4162C7.61521 10.5832 7.79281 10.6667 7.99994 10.6667Z" fill="#62656A"/>
</g>
</svg>
