<svg width="25" height="24" viewBox="0 0 25 24" fill="none" xmlns="http://www.w3.org/2000/svg">
<g id="Frame">
<path id="Vector" fill-rule="evenodd" clip-rule="evenodd" d="M12.47 3C10.2608 3 8.46997 4.79086 8.46997 7V8C8.46997 10.2091 10.2608 12 12.47 12C14.6791 12 16.47 10.2091 16.47 8V7C16.47 4.79086 14.6791 3 12.47 3ZM9.96997 7C9.96997 5.61929 11.0893 4.5 12.47 4.5C13.8507 4.5 14.97 5.61929 14.97 7V8C14.97 9.38071 13.8507 10.5 12.47 10.5C11.0893 10.5 9.96997 9.38071 9.96997 8V7ZM5.97229 19.3686C6.44318 16.2577 9.488 14.5 12.4722 14.5C15.4558 14.5 18.501 16.2577 18.9719 19.3686C18.9746 19.3866 18.9725 19.3972 18.97 19.4048C18.967 19.4137 18.9603 19.4269 18.9459 19.442C18.9153 19.4741 18.8594 19.5039 18.7871 19.5039H6.15715C6.08484 19.5039 6.02895 19.4741 5.99835 19.442C5.98391 19.4269 5.97723 19.4137 5.97424 19.4048C5.97171 19.3972 5.96958 19.3865 5.97229 19.3686ZM12.4722 13C9.04318 13 5.11034 15.0404 4.48919 19.1441C4.32621 20.2208 5.22724 21.0039 6.15715 21.0039H18.7871C19.717 21.0039 20.618 20.2208 20.455 19.1441C19.8338 15.0404 15.9006 13 12.4722 13Z" fill="black"/>
</g>
</svg>
