<svg width="25" height="24" viewBox="0 0 25 24" fill="none" xmlns="http://www.w3.org/2000/svg">
<g id="Frame">
<path id="Vector" fill-rule="evenodd" clip-rule="evenodd" d="M9.47998 6.5C9.47998 4.88779 10.7202 3.5 12.48 3.5C14.2398 3.5 15.48 4.88779 15.48 6.5V7.5H9.47998V6.5ZM7.97998 9V11.5H9.47998V9H15.48V11.5H16.98V9H18.98V19.75C18.98 20.1642 18.6442 20.5 18.23 20.5H6.72998C6.31577 20.5 5.97998 20.1642 5.97998 19.75V9H7.97998ZM7.97998 7.5V6.5C7.97998 4.11221 9.83982 2 12.48 2C15.1202 2 16.98 4.11221 16.98 6.5V7.5H19.73H20.48V8.25V19.75C20.48 20.9926 19.4726 22 18.23 22H6.72998C5.48734 22 4.47998 20.9926 4.47998 19.75V8.25V7.5H5.22998H7.97998Z" fill="#141415"/>
</g>
</svg>
