<svg width="25" height="24" viewBox="0 0 25 24" fill="none" xmlns="http://www.w3.org/2000/svg">
<g id="image">
<path id="Vector" fill-rule="evenodd" clip-rule="evenodd" d="M8.44998 5.5C6.21933 5.5 4.44998 7.30906 4.44998 9.5C4.44998 10.4282 4.82682 11.4436 5.49868 12.5105C6.1669 13.5716 7.09146 14.6274 8.10125 15.6219C9.50767 17.007 10.9818 18.1879 12.1208 19.1003C12.4234 19.3427 12.7023 19.5661 12.95 19.7694C13.1977 19.5661 13.4766 19.3427 13.7792 19.1003C14.9182 18.1879 16.3923 17.007 17.7987 15.6219C18.8085 14.6274 19.7331 13.5716 20.4013 12.5105C21.0732 11.4436 21.45 10.4282 21.45 9.5C21.45 7.30898 19.6814 5.5 17.45 5.5C15.2973 5.5 14.0238 7.20226 13.6762 7.74742C13.3389 8.27655 12.5611 8.27653 12.2238 7.74742C11.8762 7.20225 10.6027 5.5 8.44998 5.5ZM2.94998 9.5C2.94998 6.49094 5.38063 4 8.44998 4C10.6814 4 12.1749 5.30207 12.95 6.21581C13.7251 5.30207 15.2186 4 17.45 4C20.5202 4 22.95 6.49102 22.95 9.5C22.95 10.8218 22.4206 12.1189 21.6706 13.3098C20.9169 14.5066 19.904 15.6539 18.8513 16.6906C17.3929 18.1269 15.758 19.4384 14.6002 20.3672C14.1149 20.7565 13.7134 21.0786 13.4439 21.3144C13.1611 21.5619 12.7389 21.5619 12.4561 21.3144C12.1866 21.0786 11.7851 20.7565 11.2998 20.3672C10.142 19.4384 8.5071 18.1269 7.04871 16.6906C5.996 15.6539 4.98306 14.5066 4.2294 13.3098C3.47939 12.1189 2.94998 10.8218 2.94998 9.5Z" fill="#141415"/>
</g>
</svg>
