<svg width="20" height="21" viewBox="0 0 20 21" fill="none" xmlns="http://www.w3.org/2000/svg">
<g id="Frame">
<path id="Vector" d="M5.95 2.02002C8.51792 2.02002 10 4.17236 10 4.17236C10 4.17236 11.485 2.02002 14.05 2.02002C16.705 2.02002 19 4.09002 19 6.97002C19 11.2005 12.5604 15.6397 10.3651 17.5803C10.1582 17.7632 9.84179 17.7632 9.63488 17.5803C7.44056 15.6409 1 11.2003 1 6.97002C1 4.09002 3.295 2.02002 5.95 2.02002Z" fill="white" fill-opacity="0.8"/>
<path id="Vector_2" d="M1 6.88488C1 4.22299 3.15017 2.02002 5.86486 2.02002C7.98685 2.02002 9.35921 3.37878 10 4.20675C10.6408 3.37878 12.0132 2.02002 14.1351 2.02002C16.8506 2.02002 19 4.22304 19 6.88488C19 8.04989 18.5328 9.20624 17.8534 10.285C17.1716 11.3676 16.252 12.4103 15.29 13.3577C13.9567 14.6708 12.4757 15.8587 11.4134 16.7107C10.9618 17.0729 10.5859 17.3744 10.3293 17.599C10.1407 17.7639 9.85926 17.7639 9.67075 17.599C9.41405 17.3744 9.03815 17.0729 8.58659 16.7107C7.52431 15.8587 6.04326 14.6708 4.70997 13.3577C3.74802 12.4103 2.82836 11.3676 2.14659 10.285C1.46724 9.20624 1 8.04989 1 6.88488ZM5.86486 3.02002C3.70929 3.02002 2 4.7684 2 6.88488C2 7.78745 2.36553 8.75609 2.99277 9.7521C3.61759 10.7442 4.47833 11.726 5.41165 12.6452C6.71033 13.9242 8.08423 15.025 9.13396 15.8661C9.45728 16.1252 9.74985 16.3596 10 16.567C10.2501 16.3596 10.5427 16.1252 10.866 15.8661C11.9158 15.025 13.2897 13.9242 14.5883 12.6452C15.5217 11.726 16.3824 10.7442 17.0072 9.7521C17.6345 8.75609 18 7.78745 18 6.88488C18 4.76835 16.2914 3.02002 14.1351 3.02002C12.0406 3.02002 10.8181 4.72213 10.5033 5.2303C10.2727 5.60252 9.72727 5.60251 9.4967 5.23029C9.1819 4.72212 7.95944 3.02002 5.86486 3.02002Z" fill="#15151A"/>
</g>
</svg>
